<svg width="68" height="14" viewBox="0 0 68 14" fill="none" xmlns="http://www.w3.org/2000/svg">
<g clip-path="url(#clip0_109_1542)">
<path d="M-3.78125 7C-3.50511 7 -3.28125 6.77614 -3.28125 6.5C-3.28125 6.22386 -3.50511 6 -3.78125 6L-3.78125 7ZM3.53125 6C3.25511 6 3.03125 6.22386 3.03125 6.5C3.03125 6.77614 3.25511 7 3.53125 7L3.53125 6ZM5.96875 7C6.24489 7 6.46875 6.77614 6.46875 6.5C6.46875 6.22386 6.24489 6 5.96875 6L5.96875 7ZM13.2813 6C13.0051 6 12.7812 6.22386 12.7812 6.5C12.7812 6.77614 13.0051 7 13.2812 7L13.2813 6ZM15.7188 7C15.9949 7 16.2188 6.77614 16.2188 6.5C16.2188 6.22386 15.9949 6 15.7188 6L15.7188 7ZM23.0313 6C22.7551 6 22.5312 6.22386 22.5312 6.5C22.5312 6.77614 22.7551 7 23.0312 7L23.0313 6ZM25.4687 7C25.7449 7 25.9687 6.77614 25.9687 6.5C25.9687 6.22386 25.7449 6 25.4687 6L25.4687 7ZM32.7812 6C32.5051 6 32.2812 6.22386 32.2812 6.5C32.2812 6.77614 32.5051 7 32.7812 7V6ZM35.2188 7C35.4949 7 35.7188 6.77614 35.7188 6.5C35.7188 6.22386 35.4949 6 35.2188 6V7ZM42.5312 6C42.2551 6 42.0312 6.22386 42.0312 6.5C42.0312 6.77614 42.2551 7 42.5312 7V6ZM44.9688 7C45.2449 7 45.4688 6.77614 45.4688 6.5C45.4688 6.22386 45.2449 6 44.9688 6V7ZM52.2812 6C52.0051 6 51.7812 6.22386 51.7812 6.5C51.7812 6.77614 52.0051 7 52.2812 7V6ZM54.7188 7C54.9949 7 55.2188 6.77614 55.2188 6.5C55.2188 6.22385 54.9949 6 54.7188 6V7ZM62.0312 6C61.7551 6 61.5312 6.22385 61.5312 6.5C61.5312 6.77614 61.7551 7 62.0312 7V6ZM64.4688 7C64.7449 7 64.9688 6.77614 64.9688 6.5C64.9688 6.22385 64.7449 6 64.4688 6V7ZM71.7812 6C71.5051 6 71.2812 6.22385 71.2812 6.5C71.2812 6.77614 71.5051 7 71.7812 7V6ZM74.2188 7C74.4949 7 74.7188 6.77614 74.7188 6.5C74.7188 6.22385 74.4949 6 74.2188 6V7ZM81.5312 6C81.2551 6 81.0312 6.22385 81.0312 6.5C81.0312 6.77614 81.2551 7 81.5312 7V6ZM83.9688 7C84.2449 7 84.4688 6.77614 84.4688 6.5C84.4688 6.22385 84.2449 6 83.9688 6V7ZM91.2812 6C91.0051 6 90.7812 6.22385 90.7812 6.5C90.7812 6.77614 91.0051 7 91.2812 7V6ZM93.7188 7C93.9949 7 94.2188 6.77614 94.2188 6.5C94.2188 6.22385 93.9949 6 93.7188 6V7ZM101.031 6C100.755 6 100.531 6.22385 100.531 6.5C100.531 6.77614 100.755 7 101.031 7V6ZM103.469 7C103.745 7 103.969 6.77614 103.969 6.5C103.969 6.22385 103.745 6 103.469 6V7ZM110.781 5.99999C110.505 5.99999 110.281 6.22385 110.281 6.49999C110.281 6.77614 110.505 6.99999 110.781 6.99999V5.99999ZM-5 7L-3.78125 7L-3.78125 6L-5 6L-5 7ZM3.53125 7L5.96875 7L5.96875 6L3.53125 6L3.53125 7ZM13.2812 7L15.7188 7L15.7188 6L13.2813 6L13.2812 7ZM23.0312 7L25.4687 7L25.4687 6L23.0313 6L23.0312 7ZM32.7812 7L35.2188 7V6L32.7812 6V7ZM42.5312 7L44.9688 7V6L42.5312 6V7ZM52.2812 7L54.7188 7V6L52.2812 6V7ZM62.0312 7L64.4688 7V6L62.0312 6V7ZM71.7812 7L74.2188 7V6L71.7812 6V7ZM81.5312 7L83.9688 7V6L81.5312 6V7ZM91.2812 7L93.7188 7V6L91.2812 6V7ZM101.031 7L103.469 7V6L101.031 6V7ZM110.781 6.99999L112 6.99999V5.99999L110.781 5.99999V6.99999Z" fill="white"/>
<rect x="35" y="14" width="14" height="1" transform="rotate(-90 35 14)" fill="#0B0B0C"/>
</g>
<defs>
<clipPath id="clip0_109_1542">
<rect width="14" height="68" fill="white" transform="translate(0 14) rotate(-90)"/>
</clipPath>
</defs>
</svg>
