<svg width="44" height="44" viewBox="0 0 44 44" fill="none" xmlns="http://www.w3.org/2000/svg">
<path fill-rule="evenodd" clip-rule="evenodd" d="M22.2945 0.00193082C22.1965 0.000644941 22.0983 0 22 0C20.1236 0 18.3022 0.234899 16.5633 0.676894L17.5145 3.30142C18.9536 2.95746 20.4555 2.77533 22 2.77533C22.0983 2.77533 22.1965 2.77607 22.2945 2.77754V0.00193082ZM4.59398 8.54352C7.34023 4.99643 11.1467 2.31163 15.5382 0.964258L16.4854 3.57796C12.7153 4.70491 9.43107 6.95761 7.02291 9.94593L4.59398 8.54352ZM0.0130595 21.2347H2.79028C2.9129 18.1025 3.78488 15.1628 5.23194 12.5898L2.8279 11.2018C1.14493 14.1835 0.137421 17.597 0.0130595 21.2347ZM2.77757 22.2964H0.00195312C0.0488456 25.8475 0.937103 29.1956 2.47648 32.1504L4.88305 30.7609C3.57789 28.2161 2.8236 25.3421 2.77757 22.2964ZM19.1094 43.8118C12.2257 42.9084 6.34399 38.8226 2.98975 33.0801L5.39365 31.6921C8.26625 36.6034 13.2552 40.126 19.1094 41.0088V43.8118ZM22.2945 41.2225V43.9981C27.9359 43.9241 33.0651 41.7266 36.9192 38.1685L34.955 36.2042C31.605 39.2613 27.1697 41.1493 22.2945 41.2225ZM35.7194 35.4672L37.6819 37.4298C41.5893 33.4589 44 28.011 44 22C44 18.9585 43.3828 16.0611 42.2668 13.4263L39.8417 14.8265C40.7337 17.0431 41.2247 19.4642 41.2247 22C41.2247 27.2446 39.1246 31.9987 35.7194 35.4672ZM23.3562 0.0411187C28.819 0.373341 33.7434 2.69903 37.4115 6.30011L35.449 8.26271C32.284 5.16373 28.0525 3.14972 23.3562 2.82242V0.0411187ZM36.187 9.02615L38.1511 7.06195C39.1509 8.14242 40.0437 9.32341 40.8125 10.5881L38.4079 11.9764C37.7622 10.9216 37.0176 9.93388 36.187 9.02615Z" fill="url(#paint0_radial_874_3035)"/>
<path fill-rule="evenodd" clip-rule="evenodd" d="M22.2945 0.00193082C22.1965 0.000644941 22.0983 0 22 0C20.1236 0 18.3022 0.234899 16.5633 0.676894L17.5145 3.30142C18.9536 2.95746 20.4555 2.77533 22 2.77533C22.0983 2.77533 22.1965 2.77607 22.2945 2.77754V0.00193082ZM4.59398 8.54352C7.34023 4.99643 11.1467 2.31163 15.5382 0.964258L16.4854 3.57796C12.7153 4.70491 9.43107 6.95761 7.02291 9.94593L4.59398 8.54352ZM0.0130595 21.2347H2.79028C2.9129 18.1025 3.78488 15.1628 5.23194 12.5898L2.8279 11.2018C1.14493 14.1835 0.137421 17.597 0.0130595 21.2347ZM2.77757 22.2964H0.00195312C0.0488456 25.8475 0.937103 29.1956 2.47648 32.1504L4.88305 30.7609C3.57789 28.2161 2.8236 25.3421 2.77757 22.2964ZM19.1094 43.8118C12.2257 42.9084 6.34399 38.8226 2.98975 33.0801L5.39365 31.6921C8.26625 36.6034 13.2552 40.126 19.1094 41.0088V43.8118ZM22.2945 41.2225V43.9981C27.9359 43.9241 33.0651 41.7266 36.9192 38.1685L34.955 36.2042C31.605 39.2613 27.1697 41.1493 22.2945 41.2225ZM35.7194 35.4672L37.6819 37.4298C41.5893 33.4589 44 28.011 44 22C44 18.9585 43.3828 16.0611 42.2668 13.4263L39.8417 14.8265C40.7337 17.0431 41.2247 19.4642 41.2247 22C41.2247 27.2446 39.1246 31.9987 35.7194 35.4672ZM23.3562 0.0411187C28.819 0.373341 33.7434 2.69903 37.4115 6.30011L35.449 8.26271C32.284 5.16373 28.0525 3.14972 23.3562 2.82242V0.0411187ZM36.187 9.02615L38.1511 7.06195C39.1509 8.14242 40.0437 9.32341 40.8125 10.5881L38.4079 11.9764C37.7622 10.9216 37.0176 9.93388 36.187 9.02615Z" fill="url(#paint1_radial_874_3035)"/>
<defs>
<radialGradient id="paint0_radial_874_3035" cx="0" cy="0" r="1" gradientUnits="userSpaceOnUse" gradientTransform="translate(22.001 44.5032) rotate(-54.7956) scale(54.4647 59.169)">
<stop stop-color="#0342E7"/>
<stop offset="0.536494" stop-color="#CB24FF"/>
</radialGradient>
<radialGradient id="paint1_radial_874_3035" cx="0" cy="0" r="1" gradientUnits="userSpaceOnUse" gradientTransform="translate(-2.54793 17.6778) rotate(44.6984) scale(37.42 42.3337)">
<stop stop-color="#16A9FE"/>
<stop offset="1" stop-color="#16A9FE" stop-opacity="0"/>
</radialGradient>
</defs>
</svg>
