<svg width="81" height="69" viewBox="0 0 81 69" fill="none" xmlns="http://www.w3.org/2000/svg">
<path fill-rule="evenodd" clip-rule="evenodd" d="M20.0248 10.1586C16.3165 11.6251 10.3607 18.3801 7.84674 23.9704C6.77496 26.3541 5.38234 30.9716 4.75086 34.2315C3.57658 40.2961 -0.286088 68.6586 0.0168706 68.9981C0.108279 69.1017 2.02151 64.6604 4.26667 59.1284C20.407 19.3674 21.0403 17.9907 25.6279 12.6569C28.0042 9.89398 28.0251 9.82818 26.6347 9.40997C24.5457 8.78197 23.0906 8.94652 20.0248 10.1586Z" fill="white"/>
<path fill-rule="evenodd" clip-rule="evenodd" d="M27.916 14.637C25.7061 16.3091 21.2548 22.4705 21.25 23.8641C21.2482 24.329 22.6892 25.533 24.4527 26.5387C27.7683 28.431 49.1783 37.759 50.2046 37.759C50.5241 37.759 50.0791 36.9108 49.2168 35.8735C48.3541 34.8364 44.879 29.7718 41.4937 24.6191C38.1084 19.4662 34.7171 14.7611 33.9575 14.1639C32.0567 12.6687 30.3397 12.803 27.916 14.637Z" fill="white"/>
<path fill-rule="evenodd" clip-rule="evenodd" d="M35.1491 40.6727C37.4567 43.7832 40.6227 48.2223 42.1846 50.5361C46.2714 56.5904 48.5082 58.5458 50.7681 58.0384C53.492 57.4268 56.4589 54.5598 58.4966 50.5704C59.4962 48.6144 60.3157 46.6481 60.3193 46.2011C60.3241 45.4827 33.5212 35.0166 31.6747 35.0166C31.2785 35.0166 32.8421 37.5614 35.1491 40.6727Z" fill="white"/>
<path fill-rule="evenodd" clip-rule="evenodd" d="M79.315 3.64635C76.2123 12.7475 64.9581 41.8236 62.2679 47.6882C60.7144 51.0757 58.2676 55.4675 56.8309 57.4481C55.3942 59.4287 54.2188 61.2078 54.2188 61.4019C54.2188 61.5959 55.3862 61.7473 56.8137 61.7391C60.5135 61.7179 64.1248 59.6338 67.9965 55.2864C72.7861 49.9094 75.255 43.7186 76.7637 33.3026C79.122 17.0234 81.1896 0.7436 80.9855 0.0566473C80.8714 -0.327964 80.1191 1.28727 79.315 3.64635Z" fill="white"/>
</svg>
