<svg width="510" height="520" viewBox="0 0 510 520" fill="none" xmlns="http://www.w3.org/2000/svg">
<g clip-path="url(#clip0_743_3012)">
<path d="M495.645 385.569C511.329 449.87 514.194 516.631 504.077 582.039C493.96 647.447 471.059 710.223 436.682 766.781C402.304 823.339 357.124 872.572 303.719 911.669C250.315 950.766 189.732 978.961 125.431 994.645L125.428 994.632C189.727 978.948 250.308 950.754 303.711 911.658C357.114 872.562 402.294 823.33 436.67 766.774C471.047 710.217 493.947 647.444 504.064 582.037C514.181 516.63 511.315 449.871 495.632 385.572L495.645 385.569Z" stroke="url(#paint0_linear_743_3012)" stroke-width="2" stroke-dasharray="4 6"/>
<path d="M394.517 270.116C425.363 321.137 445.857 377.734 454.829 436.675C463.802 495.616 461.077 555.747 446.811 613.635C432.545 671.524 407.016 726.035 371.683 774.057C336.35 822.079 291.904 862.672 240.884 893.517L240.877 893.507C291.897 862.662 336.341 822.071 371.673 774.05C407.006 726.029 432.533 671.519 446.799 613.633C461.065 555.746 463.79 495.616 454.817 436.677C445.845 377.737 425.351 321.142 394.507 270.123L394.517 270.116Z" stroke="url(#paint1_linear_743_3012)" stroke-width="2" stroke-dasharray="4 6"/>
<path d="M338.61 275.682C368.724 319.361 389.941 368.544 401.048 420.423C412.155 472.301 412.934 525.859 403.343 578.039C393.751 630.219 373.976 679.998 345.146 724.536C316.316 769.073 278.997 807.496 235.318 837.61L235.311 837.601C278.989 807.488 316.308 769.066 345.137 724.53C373.966 679.994 393.741 630.215 403.332 578.037C412.924 525.858 412.144 472.302 401.037 420.425C389.93 368.548 368.715 319.366 338.601 275.689L338.61 275.682Z" stroke="url(#paint2_linear_743_3012)" stroke-width="2" stroke-dasharray="4 6"/>
<path d="M239.15 238.623C274.132 269.24 302.74 306.448 323.341 348.122C343.943 389.796 356.134 435.12 359.219 481.505C362.305 527.89 356.224 574.429 341.323 618.465C326.423 662.5 302.995 703.169 272.377 738.15L272.37 738.144C302.987 703.164 326.414 662.496 341.314 618.462C356.214 574.428 362.295 527.89 359.21 481.506C356.125 435.121 343.934 389.799 323.333 348.126C302.732 306.454 274.124 269.247 239.144 238.63L239.15 238.623Z" stroke="url(#paint3_linear_743_3012)" stroke-width="2" stroke-dasharray="4 6"/>
<path d="M192.69 265.078C224.197 289.594 250.567 320.076 270.294 354.784C290.02 389.491 302.718 427.744 307.661 467.359C312.604 506.974 309.696 547.174 299.103 585.665C288.51 624.156 270.439 660.183 245.922 691.69L245.916 691.685C270.432 660.179 288.502 624.152 299.095 585.663C309.688 547.173 312.596 506.974 307.653 467.36C302.71 427.746 290.013 389.494 270.286 354.788C250.56 320.081 224.191 289.6 192.685 265.084L192.69 265.078Z" stroke="url(#paint4_linear_743_3012)" stroke-width="2" stroke-dasharray="4 6"/>
<path d="M136.627 287.164C165.234 304.318 190.182 326.939 210.046 353.735C229.911 380.53 244.303 410.976 252.401 443.334C260.499 475.692 262.144 509.328 257.243 542.322C252.342 575.315 240.99 607.021 223.836 635.627L223.83 635.624C240.984 607.018 252.335 575.314 257.236 542.321C262.137 509.328 260.492 475.693 252.394 443.336C244.296 410.979 229.905 380.534 210.041 353.739C190.177 326.944 165.23 304.324 136.624 287.17L136.627 287.164Z" stroke="url(#paint5_linear_743_3012)" stroke-width="2" stroke-dasharray="4 6"/>
<path d="M90.2553 318.115C114.797 329.179 136.92 344.97 155.36 364.584C173.799 384.198 188.195 407.252 197.725 432.43C207.255 457.608 211.733 484.416 210.902 511.324C210.072 538.232 203.95 564.713 192.885 589.255L192.88 589.253C203.944 564.712 210.066 538.231 210.897 511.324C211.727 484.416 207.25 457.609 197.72 432.432C188.19 407.255 173.795 384.201 155.356 364.588C136.916 344.974 114.795 329.184 90.2531 318.12L90.2553 318.115Z" stroke="url(#paint6_linear_743_3012)" stroke-width="2" stroke-dasharray="4 6"/>
<path d="M62.7731 361.847C81.5723 369.302 98.7188 380.388 113.234 394.47C127.749 408.552 139.348 425.355 147.369 443.92C155.39 462.485 159.676 482.448 159.982 502.669C160.288 522.89 156.609 542.974 149.153 561.773L149.149 561.772C156.605 542.973 160.284 522.89 159.978 502.669C159.672 482.449 155.386 462.486 147.365 443.922C139.344 425.357 127.746 408.555 113.231 394.473C98.7163 380.391 81.5702 369.306 62.7716 361.851L62.7731 361.847Z" stroke="url(#paint7_linear_743_3012)" stroke-width="2" stroke-dasharray="4 6"/>
<path d="M47.4405 409.613C59.9669 415.055 71.2988 422.911 80.7891 432.732C90.2794 442.554 97.7423 454.148 102.752 466.854C107.761 479.56 110.219 493.128 109.985 506.783C109.751 520.439 106.829 533.914 101.387 546.441L101.384 546.439C106.826 533.913 109.748 520.438 109.982 506.783C110.216 493.128 107.758 479.56 102.749 466.855C97.7398 454.15 90.2771 442.556 80.7871 432.734C71.297 422.913 59.9655 415.057 47.4394 409.616L47.4405 409.613Z" stroke="url(#paint8_linear_743_3012)" stroke-width="2" stroke-dasharray="4 6"/>
<path d="M25.1159 454.497C31.7481 457.007 37.8209 460.799 42.9876 465.656C48.1542 470.514 52.3136 476.341 55.2282 482.806C58.1428 489.271 59.7555 496.246 59.9743 503.334C60.1931 510.422 59.0136 517.484 56.5033 524.116L56.5019 524.115C59.0122 517.483 60.1916 510.422 59.9728 503.334C59.7541 496.246 58.1414 489.271 55.2269 482.806C52.3124 476.342 48.1531 470.515 42.9866 465.657C37.82 460.8 31.7474 457.008 25.1154 454.498L25.1159 454.497Z" stroke="url(#paint9_linear_743_3012)" stroke-width="2" stroke-dasharray="4 6"/>
<path d="M5.99999 1C117.851 0.999999 226.525 38.2073 314.905 106.762C403.285 175.316 466.35 271.323 494.166 379.66L494.153 379.664C466.337 271.329 403.275 175.325 314.897 106.773C226.519 38.2198 117.848 1.01352 5.99999 1.01352L5.99999 1Z" stroke="url(#paint10_linear_743_3012)" stroke-width="2"/>
<path d="M5.99999 51C82.4714 51 157.704 70.3164 224.716 107.157C291.729 143.997 348.349 197.168 389.325 261.735L389.315 261.741C348.34 197.176 291.721 144.007 224.71 107.167C157.7 70.3281 82.4693 51.0122 5.99999 51.0122L5.99999 51Z" stroke="url(#paint11_linear_743_3012)" stroke-width="2"/>
<path d="M6 101C69.7554 101 132.606 116.089 189.412 145.033C246.219 173.978 295.368 215.956 332.843 267.535L332.834 267.541C295.361 215.963 246.212 173.987 189.407 145.043C132.602 116.099 69.7537 101.011 6 101.011L6 101Z" stroke="url(#paint12_linear_743_3012)" stroke-width="2"/>
<path d="M6 151C88.3772 151 168.175 179.729 231.648 232.238L231.642 232.246C168.171 179.738 88.375 151.009 6 151.009L6 151Z" stroke="url(#paint13_linear_743_3012)" stroke-width="2"/>
<path d="M6 201C70.1985 201 132.749 221.324 184.687 259.059L184.682 259.065C132.746 221.332 70.1968 201.008 6 201.008L6 201Z" stroke="url(#paint14_linear_743_3012)" stroke-width="2"/>
<path d="M6 251C48.7836 251 90.874 261.807 128.365 282.418L128.362 282.424C90.8717 261.813 48.7824 251.007 6 251.007L6 251Z" stroke="url(#paint15_linear_743_3012)" stroke-width="2"/>
<path d="M6 300C31.8376 300 57.4424 304.884 81.4656 314.396L81.4635 314.401C57.441 304.89 31.8369 300.005 6 300.005L6 300Z" stroke="url(#paint16_linear_743_3012)" stroke-width="2"/>
<path d="M6 351C22.1601 351 38.2195 353.544 53.5886 358.537L53.5874 358.541C38.2186 353.548 22.1597 351.004 6 351.004L6 351Z" stroke="url(#paint17_linear_743_3012)" stroke-width="2"/>
<path d="M6 401C16.9133 401 27.7586 402.718 38.1378 406.09L38.1369 406.093C27.758 402.72 16.913 401.003 6 401.003L6 401Z" stroke="url(#paint18_linear_743_3012)" stroke-width="2"/>
<path d="M6 451C9.39543 451 12.7833 451.32 16.1186 451.956L16.1183 451.958C12.7831 451.322 9.39534 451.001 6 451.001L6 451Z" stroke="url(#paint19_linear_743_3012)" stroke-width="2"/>
</g>
<defs>
<linearGradient id="paint0_linear_743_3012" x1="-498" y1="1" x2="510" y2="505" gradientUnits="userSpaceOnUse">
<stop stop-color="#CB24FF"/>
<stop offset="1" stop-color="#CB24FF" stop-opacity="0"/>
</linearGradient>
<linearGradient id="paint1_linear_743_3012" x1="-448" y1="51" x2="460" y2="505" gradientUnits="userSpaceOnUse">
<stop stop-color="#CB24FF"/>
<stop offset="1" stop-color="#CB24FF" stop-opacity="0"/>
</linearGradient>
<linearGradient id="paint2_linear_743_3012" x1="-398" y1="101" x2="410" y2="505" gradientUnits="userSpaceOnUse">
<stop stop-color="#CB24FF"/>
<stop offset="1" stop-color="#CB24FF" stop-opacity="0"/>
</linearGradient>
<linearGradient id="paint3_linear_743_3012" x1="-348" y1="151" x2="360" y2="505" gradientUnits="userSpaceOnUse">
<stop stop-color="#CB24FF"/>
<stop offset="1" stop-color="#CB24FF" stop-opacity="0"/>
</linearGradient>
<linearGradient id="paint4_linear_743_3012" x1="-298" y1="201" x2="310" y2="505" gradientUnits="userSpaceOnUse">
<stop stop-color="#CB24FF"/>
<stop offset="1" stop-color="#CB24FF" stop-opacity="0"/>
</linearGradient>
<linearGradient id="paint5_linear_743_3012" x1="-248" y1="251" x2="260" y2="505" gradientUnits="userSpaceOnUse">
<stop stop-color="#CB24FF"/>
<stop offset="1" stop-color="#CB24FF" stop-opacity="0"/>
</linearGradient>
<linearGradient id="paint6_linear_743_3012" x1="-199" y1="300" x2="211" y2="505" gradientUnits="userSpaceOnUse">
<stop stop-color="#CB24FF"/>
<stop offset="1" stop-color="#CB24FF" stop-opacity="0"/>
</linearGradient>
<linearGradient id="paint7_linear_743_3012" x1="-148" y1="351" x2="160" y2="505" gradientUnits="userSpaceOnUse">
<stop stop-color="#CB24FF"/>
<stop offset="1" stop-color="#CB24FF" stop-opacity="0"/>
</linearGradient>
<linearGradient id="paint8_linear_743_3012" x1="-98" y1="401" x2="110" y2="505" gradientUnits="userSpaceOnUse">
<stop stop-color="#CB24FF"/>
<stop offset="1" stop-color="#CB24FF" stop-opacity="0"/>
</linearGradient>
<linearGradient id="paint9_linear_743_3012" x1="-48" y1="451" x2="60" y2="505" gradientUnits="userSpaceOnUse">
<stop stop-color="#CB24FF"/>
<stop offset="1" stop-color="#CB24FF" stop-opacity="0"/>
</linearGradient>
<linearGradient id="paint10_linear_743_3012" x1="-498" y1="1" x2="510" y2="505" gradientUnits="userSpaceOnUse">
<stop stop-color="#CB24FF"/>
<stop offset="1" stop-color="#CB24FF" stop-opacity="0"/>
</linearGradient>
<linearGradient id="paint11_linear_743_3012" x1="-448" y1="51" x2="460" y2="505" gradientUnits="userSpaceOnUse">
<stop stop-color="#CB24FF"/>
<stop offset="1" stop-color="#CB24FF" stop-opacity="0"/>
</linearGradient>
<linearGradient id="paint12_linear_743_3012" x1="-398" y1="101" x2="410" y2="505" gradientUnits="userSpaceOnUse">
<stop stop-color="#CB24FF"/>
<stop offset="1" stop-color="#CB24FF" stop-opacity="0"/>
</linearGradient>
<linearGradient id="paint13_linear_743_3012" x1="-348" y1="151" x2="360" y2="505" gradientUnits="userSpaceOnUse">
<stop stop-color="#CB24FF"/>
<stop offset="1" stop-color="#CB24FF" stop-opacity="0"/>
</linearGradient>
<linearGradient id="paint14_linear_743_3012" x1="-298" y1="201" x2="310" y2="505" gradientUnits="userSpaceOnUse">
<stop stop-color="#CB24FF"/>
<stop offset="1" stop-color="#CB24FF" stop-opacity="0"/>
</linearGradient>
<linearGradient id="paint15_linear_743_3012" x1="-248" y1="251" x2="260" y2="505" gradientUnits="userSpaceOnUse">
<stop stop-color="#CB24FF"/>
<stop offset="1" stop-color="#CB24FF" stop-opacity="0"/>
</linearGradient>
<linearGradient id="paint16_linear_743_3012" x1="-199" y1="300" x2="211" y2="505" gradientUnits="userSpaceOnUse">
<stop stop-color="#CB24FF"/>
<stop offset="1" stop-color="#CB24FF" stop-opacity="0"/>
</linearGradient>
<linearGradient id="paint17_linear_743_3012" x1="-148" y1="351" x2="160" y2="505" gradientUnits="userSpaceOnUse">
<stop stop-color="#CB24FF"/>
<stop offset="1" stop-color="#CB24FF" stop-opacity="0"/>
</linearGradient>
<linearGradient id="paint18_linear_743_3012" x1="-98" y1="401" x2="110" y2="505" gradientUnits="userSpaceOnUse">
<stop stop-color="#CB24FF"/>
<stop offset="1" stop-color="#CB24FF" stop-opacity="0"/>
</linearGradient>
<linearGradient id="paint19_linear_743_3012" x1="-48" y1="451" x2="60" y2="505" gradientUnits="userSpaceOnUse">
<stop stop-color="#CB24FF"/>
<stop offset="1" stop-color="#CB24FF" stop-opacity="0"/>
</linearGradient>
<clipPath id="clip0_743_3012">
<rect width="510" height="520" fill="white"/>
</clipPath>
</defs>
</svg>
