<svg width="173" height="175" viewBox="0 0 173 175" fill="none" xmlns="http://www.w3.org/2000/svg">
<path d="M167.252 174.474C179.487 152.462 170.727 124.766 141.866 94.213C113.005 63.66 65.075 31.3431 2.96613 0.559148L0.791053 0.906009C62.4148 31.4495 109.97 63.514 138.606 93.8284C167.242 124.143 175.933 151.622 163.794 173.463L167.252 174.474Z" fill="url(#paint0_radial_750_3032)"/>
<path d="M167.252 174.474C179.487 152.462 170.727 124.766 141.866 94.213C113.005 63.66 65.075 31.3431 2.96613 0.559148L0.791053 0.906009C62.4148 31.4495 109.97 63.514 138.606 93.8284C167.242 124.143 175.933 151.622 163.794 173.463L167.252 174.474Z" fill="url(#paint1_radial_750_3032)"/>
<defs>
<radialGradient id="paint0_radial_750_3032" cx="0" cy="0" r="1" gradientUnits="userSpaceOnUse" gradientTransform="translate(-170.985 182.664) rotate(-75.0151) scale(590.662 405.041)">
<stop stop-color="#0342E7"/>
<stop offset="1" stop-color="#CB24FF"/>
</radialGradient>
<radialGradient id="paint1_radial_750_3032" cx="0" cy="0" r="1" gradientUnits="userSpaceOnUse" gradientTransform="translate(207 31) rotate(-75.0151) scale(537.706 463.442)">
<stop stop-color="#16A9FE"/>
<stop offset="1" stop-color="#16A9FE" stop-opacity="0"/>
</radialGradient>
</defs>
</svg>
