<svg width="966" height="508" viewBox="0 0 966 508" fill="none" xmlns="http://www.w3.org/2000/svg">
<g clip-path="url(#clip0_750_3033)">
<path d="M330.407 82.4835C256.188 73.0767 190.414 71.8218 139.746 78.8458C89.0778 85.8698 55.3145 100.923 41.8749 122.482L45.324 123.509C58.6586 102.119 92.1582 87.1827 142.431 80.2135C192.703 73.2444 257.963 74.4895 331.602 83.8229L330.407 82.4835Z" fill="url(#paint0_radial_750_3033)"/>
<path d="M330.407 82.4835C256.188 73.0767 190.414 71.8218 139.746 78.8458C89.0778 85.8698 55.3145 100.923 41.8749 122.482L45.324 123.509C58.6586 102.119 92.1582 87.1827 142.431 80.2135C192.703 73.2444 257.963 74.4895 331.602 83.8229L330.407 82.4835Z" fill="url(#paint1_radial_750_3033)"/>
<path d="M41.8755 122.481C28.4861 143.958 35.7401 171.133 62.9082 201.274C90.0763 231.416 136.201 263.461 196.646 294.189L198.887 293.875C138.914 263.387 93.1489 231.592 66.193 201.686C39.2371 171.78 32.0398 144.817 45.3246 123.508L41.8755 122.481Z" fill="url(#paint2_radial_750_3033)"/>
<path d="M41.8755 122.481C28.4861 143.958 35.7401 171.133 62.9082 201.274C90.0763 231.416 136.201 263.461 196.646 294.189L198.887 293.875C138.914 263.387 93.1489 231.592 66.193 201.686C39.2371 171.78 32.0398 144.817 45.3246 123.508L41.8755 122.481Z" fill="url(#paint3_radial_750_3033)"/>
<path d="M196.646 294.189C257.555 325.152 330.832 353.675 409.003 376.846C487.175 400.017 567.442 417.008 641.616 426.085L640.381 424.741C566.786 415.734 487.146 398.876 409.585 375.886C332.024 352.896 259.319 324.596 198.886 293.875L196.646 294.189Z" fill="url(#paint4_radial_750_3033)"/>
<path d="M196.646 294.189C257.555 325.152 330.832 353.675 409.003 376.846C487.175 400.017 567.442 417.008 641.616 426.085L640.381 424.741C566.786 415.734 487.146 398.876 409.585 375.886C332.024 352.896 259.319 324.596 198.886 293.875L196.646 294.189Z" fill="url(#paint5_radial_750_3033)"/>
<path d="M641.617 426.085C715.791 435.162 781.218 436 831.222 428.514C881.226 421.028 914.018 405.486 926.252 383.473L922.794 382.462C910.655 404.303 878.119 419.723 828.506 427.151C778.892 434.578 713.977 433.747 640.382 424.741L641.617 426.085Z" fill="url(#paint6_radial_750_3033)"/>
<path d="M641.617 426.085C715.791 435.162 781.218 436 831.222 428.514C881.226 421.028 914.018 405.486 926.252 383.473L922.794 382.462C910.655 404.303 878.119 419.723 828.506 427.151C778.892 434.578 713.977 433.747 640.382 424.741L641.617 426.085Z" fill="url(#paint7_radial_750_3033)"/>
<path d="M926.252 383.474C938.487 361.462 929.727 333.766 900.866 303.213C872.005 272.66 824.075 240.343 761.966 209.559L759.791 209.906C821.415 240.45 868.97 272.514 897.606 302.828C926.242 333.143 934.933 360.622 922.794 382.463L926.252 383.474Z" fill="url(#paint8_radial_750_3033)"/>
<path d="M926.252 383.474C938.487 361.462 929.727 333.766 900.866 303.213C872.005 272.66 824.075 240.343 761.966 209.559L759.791 209.906C821.415 240.45 868.97 272.514 897.606 302.828C926.242 333.143 934.933 360.622 922.794 382.463L926.252 383.474Z" fill="url(#paint9_radial_750_3033)"/>
</g>
<defs>
<radialGradient id="paint0_radial_750_3033" cx="0" cy="0" r="1" gradientUnits="userSpaceOnUse" gradientTransform="translate(588.015 391.664) rotate(-75.0151) scale(590.662 405.041)">
<stop stop-color="#0342E7"/>
<stop offset="1" stop-color="#CB24FF"/>
</radialGradient>
<radialGradient id="paint1_radial_750_3033" cx="0" cy="0" r="1" gradientUnits="userSpaceOnUse" gradientTransform="translate(966 240) rotate(-75.0151) scale(537.706 463.442)">
<stop stop-color="#16A9FE"/>
<stop offset="1" stop-color="#16A9FE" stop-opacity="0"/>
</radialGradient>
<radialGradient id="paint2_radial_750_3033" cx="0" cy="0" r="1" gradientUnits="userSpaceOnUse" gradientTransform="translate(588.015 391.664) rotate(-75.0151) scale(590.662 405.041)">
<stop stop-color="#0342E7"/>
<stop offset="1" stop-color="#CB24FF"/>
</radialGradient>
<radialGradient id="paint3_radial_750_3033" cx="0" cy="0" r="1" gradientUnits="userSpaceOnUse" gradientTransform="translate(966 240) rotate(-75.0151) scale(537.706 463.442)">
<stop stop-color="#16A9FE"/>
<stop offset="1" stop-color="#16A9FE" stop-opacity="0"/>
</radialGradient>
<radialGradient id="paint4_radial_750_3033" cx="0" cy="0" r="1" gradientUnits="userSpaceOnUse" gradientTransform="translate(588.015 391.664) rotate(-75.0151) scale(590.662 405.041)">
<stop stop-color="#0342E7"/>
<stop offset="1" stop-color="#CB24FF"/>
</radialGradient>
<radialGradient id="paint5_radial_750_3033" cx="0" cy="0" r="1" gradientUnits="userSpaceOnUse" gradientTransform="translate(966 240) rotate(-75.0151) scale(537.706 463.442)">
<stop stop-color="#16A9FE"/>
<stop offset="1" stop-color="#16A9FE" stop-opacity="0"/>
</radialGradient>
<radialGradient id="paint6_radial_750_3033" cx="0" cy="0" r="1" gradientUnits="userSpaceOnUse" gradientTransform="translate(588.015 391.664) rotate(-75.0151) scale(590.662 405.041)">
<stop stop-color="#0342E7"/>
<stop offset="1" stop-color="#CB24FF"/>
</radialGradient>
<radialGradient id="paint7_radial_750_3033" cx="0" cy="0" r="1" gradientUnits="userSpaceOnUse" gradientTransform="translate(966 240) rotate(-75.0151) scale(537.706 463.442)">
<stop stop-color="#16A9FE"/>
<stop offset="1" stop-color="#16A9FE" stop-opacity="0"/>
</radialGradient>
<radialGradient id="paint8_radial_750_3033" cx="0" cy="0" r="1" gradientUnits="userSpaceOnUse" gradientTransform="translate(588.015 391.664) rotate(-75.0151) scale(590.662 405.041)">
<stop stop-color="#0342E7"/>
<stop offset="1" stop-color="#CB24FF"/>
</radialGradient>
<radialGradient id="paint9_radial_750_3033" cx="0" cy="0" r="1" gradientUnits="userSpaceOnUse" gradientTransform="translate(966 240) rotate(-75.0151) scale(537.706 463.442)">
<stop stop-color="#16A9FE"/>
<stop offset="1" stop-color="#16A9FE" stop-opacity="0"/>
</radialGradient>
<clipPath id="clip0_750_3033">
<rect width="965.041" height="507.223" fill="white" transform="translate(0.958984 0.357178)"/>
</clipPath>
</defs>
</svg>
