<svg width="164" height="173" viewBox="0 0 164 173" fill="none" xmlns="http://www.w3.org/2000/svg">
<path d="M6.87547 0.481094C-6.51388 21.9582 0.740038 49.1332 27.9082 79.2744C55.0763 109.416 101.201 141.461 161.646 172.189L163.887 171.875C103.914 141.387 58.1489 109.592 31.193 79.686C4.23708 49.7802 -2.96023 22.8174 10.3246 1.50806L6.87547 0.481094Z" fill="url(#paint0_radial_750_3029)"/>
<path d="M6.87547 0.481094C-6.51388 21.9582 0.740038 49.1332 27.9082 79.2744C55.0763 109.416 101.201 141.461 161.646 172.189L163.887 171.875C103.914 141.387 58.1489 109.592 31.193 79.686C4.23708 49.7802 -2.96023 22.8174 10.3246 1.50806L6.87547 0.481094Z" fill="url(#paint1_radial_750_3029)"/>
<defs>
<radialGradient id="paint0_radial_750_3029" cx="0" cy="0" r="1" gradientUnits="userSpaceOnUse" gradientTransform="translate(553.015 269.664) rotate(-75.0151) scale(590.662 405.041)">
<stop stop-color="#0342E7"/>
<stop offset="1" stop-color="#CB24FF"/>
</radialGradient>
<radialGradient id="paint1_radial_750_3029" cx="0" cy="0" r="1" gradientUnits="userSpaceOnUse" gradientTransform="translate(931 118) rotate(-75.0151) scale(537.706 463.442)">
<stop stop-color="#16A9FE"/>
<stop offset="1" stop-color="#16A9FE" stop-opacity="0"/>
</radialGradient>
</defs>
</svg>
