<svg width="965" height="507" viewBox="0 0 965 507" fill="none" xmlns="http://www.w3.org/2000/svg">
<path opacity="0.15" d="M329.407 82.4835C236.276 70.6797 156.988 71.7761 103.946 85.6012C50.9044 99.4263 27.0991 125.201 36.2538 158.892C45.4085 192.584 87.0069 232.294 154.543 271.81C222.078 311.327 311.743 348.421 409.512 377.292C507.28 406.163 607.64 425.182 694.893 431.374C782.146 437.567 851.371 430.583 891.743 411.516C932.114 392.449 941.353 362.373 918.017 325.994C894.68 289.614 840.082 248.982 762.764 210.453L760.575 210.793C837.289 249.021 891.46 289.336 914.615 325.431C937.769 361.527 928.602 391.367 888.546 410.285C848.49 429.204 779.805 436.133 693.234 429.989C606.662 423.845 507.087 404.974 410.082 376.329C313.076 347.684 224.112 310.879 157.104 271.671C90.0957 232.463 48.8222 193.064 39.739 159.635C30.6558 126.206 54.2751 100.633 106.903 86.9162C159.531 73.1991 238.198 72.1112 330.602 83.8229L329.407 82.4835Z" fill="white"/>
<g clip-path="url(#clip0_26_6492)">
<path d="M329.407 82.4835C236.276 70.6797 156.988 71.7761 103.946 85.6012C50.9044 99.4263 27.0991 125.201 36.2538 158.892C45.4085 192.584 87.0069 232.294 154.543 271.81C222.078 311.327 311.743 348.421 409.512 377.292C507.28 406.163 607.64 425.182 694.893 431.374C782.146 437.567 851.371 430.583 891.743 411.516C932.114 392.449 941.353 362.373 918.017 325.994C894.68 289.614 840.082 248.982 762.764 210.453L760.575 210.793C837.289 249.021 891.46 289.336 914.615 325.431C937.769 361.527 928.602 391.367 888.546 410.285C848.49 429.204 779.805 436.133 693.234 429.989C606.662 423.845 507.087 404.974 410.082 376.329C313.076 347.684 224.112 310.879 157.104 271.671C90.0957 232.463 48.8222 193.064 39.739 159.635C30.6558 126.206 54.2751 100.633 106.903 86.9162C159.531 73.1991 238.198 72.1112 330.602 83.8229L329.407 82.4835Z" fill="url(#paint0_radial_26_6492)"/>
<path d="M329.407 82.4835C236.276 70.6797 156.988 71.7761 103.946 85.6012C50.9044 99.4263 27.0991 125.201 36.2538 158.892C45.4085 192.584 87.0069 232.294 154.543 271.81C222.078 311.327 311.743 348.421 409.512 377.292C507.28 406.163 607.64 425.182 694.893 431.374C782.146 437.567 851.371 430.583 891.743 411.516C932.114 392.449 941.353 362.373 918.017 325.994C894.68 289.614 840.082 248.982 762.764 210.453L760.575 210.793C837.289 249.021 891.46 289.336 914.615 325.431C937.769 361.527 928.602 391.367 888.546 410.285C848.49 429.204 779.805 436.133 693.234 429.989C606.662 423.845 507.087 404.974 410.082 376.329C313.076 347.684 224.112 310.879 157.104 271.671C90.0957 232.463 48.8222 193.064 39.739 159.635C30.6558 126.206 54.2751 100.633 106.903 86.9162C159.531 73.1991 238.198 72.1112 330.602 83.8229L329.407 82.4835Z" fill="url(#paint1_radial_26_6492)"/>
</g>
<g clip-path="url(#clip1_26_6492)">
<path d="M329.407 82.4835C236.276 70.6797 156.988 71.7761 103.946 85.6012C50.9044 99.4263 27.0991 125.201 36.2538 158.892C45.4085 192.584 87.0069 232.294 154.543 271.81C222.078 311.327 311.743 348.421 409.512 377.292C507.28 406.163 607.64 425.182 694.893 431.374C782.146 437.567 851.371 430.583 891.743 411.516C932.114 392.449 941.353 362.373 918.017 325.994C894.68 289.614 840.082 248.982 762.764 210.453L760.575 210.793C837.289 249.021 891.46 289.336 914.615 325.431C937.769 361.527 928.602 391.367 888.546 410.285C848.49 429.204 779.805 436.133 693.234 429.989C606.662 423.845 507.087 404.974 410.082 376.329C313.076 347.684 224.112 310.879 157.104 271.671C90.0957 232.463 48.8222 193.064 39.739 159.635C30.6558 126.206 54.2751 100.633 106.903 86.9162C159.531 73.1991 238.198 72.1112 330.602 83.8229L329.407 82.4835Z" fill="url(#paint2_radial_26_6492)"/>
<path d="M329.407 82.4835C236.276 70.6797 156.988 71.7761 103.946 85.6012C50.9044 99.4263 27.0991 125.201 36.2538 158.892C45.4085 192.584 87.0069 232.294 154.543 271.81C222.078 311.327 311.743 348.421 409.512 377.292C507.28 406.163 607.64 425.182 694.893 431.374C782.146 437.567 851.371 430.583 891.743 411.516C932.114 392.449 941.353 362.373 918.017 325.994C894.68 289.614 840.082 248.982 762.764 210.453L760.575 210.793C837.289 249.021 891.46 289.336 914.615 325.431C937.769 361.527 928.602 391.367 888.546 410.285C848.49 429.204 779.805 436.133 693.234 429.989C606.662 423.845 507.087 404.974 410.082 376.329C313.076 347.684 224.112 310.879 157.104 271.671C90.0957 232.463 48.8222 193.064 39.739 159.635C30.6558 126.206 54.2751 100.633 106.903 86.9162C159.531 73.1991 238.198 72.1112 330.602 83.8229L329.407 82.4835Z" fill="url(#paint3_radial_26_6492)"/>
</g>
<g clip-path="url(#clip2_26_6492)">
<path d="M329.407 82.4835C236.276 70.6797 156.988 71.7761 103.946 85.6012C50.9044 99.4263 27.0991 125.2 36.2538 158.892C45.4085 192.584 87.0069 232.294 154.543 271.81C222.078 311.327 311.743 348.421 409.512 377.292C507.28 406.163 607.64 425.182 694.893 431.374C782.146 437.567 851.371 430.583 891.743 411.516C932.114 392.449 941.353 362.373 918.017 325.994C894.68 289.614 840.082 248.982 762.764 210.453L760.575 210.793C837.289 249.021 891.46 289.336 914.615 325.431C937.769 361.527 928.602 391.367 888.546 410.285C848.49 429.204 779.805 436.133 693.234 429.989C606.662 423.845 507.087 404.974 410.082 376.329C313.076 347.684 224.112 310.879 157.104 271.671C90.0957 232.463 48.8222 193.064 39.739 159.635C30.6558 126.206 54.2752 100.633 106.903 86.9162C159.531 73.1991 238.198 72.1112 330.602 83.8229L329.407 82.4835Z" fill="url(#paint4_radial_26_6492)"/>
<path d="M329.407 82.4835C236.276 70.6797 156.988 71.7761 103.946 85.6012C50.9044 99.4263 27.0991 125.2 36.2538 158.892C45.4085 192.584 87.0069 232.294 154.543 271.81C222.078 311.327 311.743 348.421 409.512 377.292C507.28 406.163 607.64 425.182 694.893 431.374C782.146 437.567 851.371 430.583 891.743 411.516C932.114 392.449 941.353 362.373 918.017 325.994C894.68 289.614 840.082 248.982 762.764 210.453L760.575 210.793C837.289 249.021 891.46 289.336 914.615 325.431C937.769 361.527 928.602 391.367 888.546 410.285C848.49 429.204 779.805 436.133 693.234 429.989C606.662 423.845 507.087 404.974 410.082 376.329C313.076 347.684 224.112 310.879 157.104 271.671C90.0957 232.463 48.8222 193.064 39.739 159.635C30.6558 126.206 54.2752 100.633 106.903 86.9162C159.531 73.1991 238.198 72.1112 330.602 83.8229L329.407 82.4835Z" fill="url(#paint5_radial_26_6492)"/>
</g>
<g clip-path="url(#clip3_26_6492)">
<path d="M329.407 82.4835C236.276 70.6797 156.988 71.7761 103.946 85.6012C50.9044 99.4263 27.0991 125.201 36.2538 158.892C45.4085 192.584 87.0069 232.294 154.543 271.81C222.078 311.327 311.743 348.421 409.512 377.292C507.28 406.163 607.64 425.182 694.893 431.374C782.146 437.567 851.371 430.583 891.743 411.516C932.114 392.449 941.353 362.373 918.017 325.994C894.68 289.614 840.082 248.982 762.764 210.453L760.575 210.793C837.289 249.021 891.46 289.336 914.615 325.431C937.769 361.527 928.602 391.367 888.546 410.285C848.49 429.204 779.805 436.133 693.234 429.989C606.662 423.845 507.087 404.974 410.082 376.329C313.076 347.684 224.112 310.879 157.104 271.671C90.0957 232.463 48.8222 193.064 39.739 159.635C30.6558 126.206 54.2751 100.633 106.903 86.9162C159.531 73.1991 238.198 72.1112 330.602 83.8229L329.407 82.4835Z" fill="url(#paint6_radial_26_6492)"/>
<path d="M329.407 82.4835C236.276 70.6797 156.988 71.7761 103.946 85.6012C50.9044 99.4263 27.0991 125.201 36.2538 158.892C45.4085 192.584 87.0069 232.294 154.543 271.81C222.078 311.327 311.743 348.421 409.512 377.292C507.28 406.163 607.64 425.182 694.893 431.374C782.146 437.567 851.371 430.583 891.743 411.516C932.114 392.449 941.353 362.373 918.017 325.994C894.68 289.614 840.082 248.982 762.764 210.453L760.575 210.793C837.289 249.021 891.46 289.336 914.615 325.431C937.769 361.527 928.602 391.367 888.546 410.285C848.49 429.204 779.805 436.133 693.234 429.989C606.662 423.845 507.087 404.974 410.082 376.329C313.076 347.684 224.112 310.879 157.104 271.671C90.0957 232.463 48.8222 193.064 39.739 159.635C30.6558 126.206 54.2751 100.633 106.903 86.9162C159.531 73.1991 238.198 72.1112 330.602 83.8229L329.407 82.4835Z" fill="url(#paint7_radial_26_6492)"/>
</g>
<g clip-path="url(#clip4_26_6492)">
<path d="M329.407 82.4835C236.276 70.6797 156.988 71.7761 103.946 85.6012C50.9044 99.4263 27.0991 125.201 36.2538 158.892C45.4085 192.584 87.0069 232.294 154.543 271.81C222.078 311.327 311.743 348.421 409.512 377.292C507.28 406.163 607.64 425.182 694.893 431.374C782.146 437.567 851.371 430.583 891.743 411.516C932.114 392.449 941.353 362.373 918.017 325.994C894.68 289.614 840.082 248.982 762.764 210.453L760.575 210.793C837.289 249.021 891.46 289.336 914.615 325.431C937.769 361.527 928.602 391.367 888.546 410.285C848.49 429.204 779.805 436.133 693.234 429.989C606.662 423.845 507.087 404.974 410.082 376.329C313.076 347.684 224.112 310.879 157.104 271.671C90.0957 232.463 48.8222 193.064 39.739 159.635C30.6558 126.206 54.2751 100.633 106.903 86.9162C159.531 73.1991 238.198 72.1112 330.602 83.8229L329.407 82.4835Z" fill="url(#paint8_radial_26_6492)"/>
<path d="M329.407 82.4835C236.276 70.6797 156.988 71.7761 103.946 85.6012C50.9044 99.4263 27.0991 125.201 36.2538 158.892C45.4085 192.584 87.0069 232.294 154.543 271.81C222.078 311.327 311.743 348.421 409.512 377.292C507.28 406.163 607.64 425.182 694.893 431.374C782.146 437.567 851.371 430.583 891.743 411.516C932.114 392.449 941.353 362.373 918.017 325.994C894.68 289.614 840.082 248.982 762.764 210.453L760.575 210.793C837.289 249.021 891.46 289.336 914.615 325.431C937.769 361.527 928.602 391.367 888.546 410.285C848.49 429.204 779.805 436.133 693.234 429.989C606.662 423.845 507.087 404.974 410.082 376.329C313.076 347.684 224.112 310.879 157.104 271.671C90.0957 232.463 48.8222 193.064 39.739 159.635C30.6558 126.206 54.2751 100.633 106.903 86.9162C159.531 73.1991 238.198 72.1112 330.602 83.8229L329.407 82.4835Z" fill="url(#paint9_radial_26_6492)"/>
</g>
<defs>
<radialGradient id="paint0_radial_26_6492" cx="0" cy="0" r="1" gradientUnits="userSpaceOnUse" gradientTransform="translate(445.846 390.831) rotate(-141.991) scale(717.249 594.695)">
<stop stop-color="#0342E7"/>
<stop offset="0.536494" stop-color="#CB24FF"/>
</radialGradient>
<radialGradient id="paint1_radial_26_6492" cx="0" cy="0" r="1" gradientUnits="userSpaceOnUse" gradientTransform="translate(988.001 361.398) rotate(178.507) scale(583.156 359.55)">
<stop stop-color="#16A9FE"/>
<stop offset="1" stop-color="#16A9FE" stop-opacity="0"/>
</radialGradient>
<radialGradient id="paint2_radial_26_6492" cx="0" cy="0" r="1" gradientUnits="userSpaceOnUse" gradientTransform="translate(445.846 390.831) rotate(-141.991) scale(717.249 594.695)">
<stop stop-color="#0342E7"/>
<stop offset="0.536494" stop-color="#CB24FF"/>
</radialGradient>
<radialGradient id="paint3_radial_26_6492" cx="0" cy="0" r="1" gradientUnits="userSpaceOnUse" gradientTransform="translate(988.001 361.398) rotate(178.507) scale(583.156 359.55)">
<stop stop-color="#16A9FE"/>
<stop offset="1" stop-color="#16A9FE" stop-opacity="0"/>
</radialGradient>
<radialGradient id="paint4_radial_26_6492" cx="0" cy="0" r="1" gradientUnits="userSpaceOnUse" gradientTransform="translate(445.846 390.831) rotate(-141.991) scale(717.249 594.695)">
<stop stop-color="#0342E7"/>
<stop offset="0.536494" stop-color="#CB24FF"/>
</radialGradient>
<radialGradient id="paint5_radial_26_6492" cx="0" cy="0" r="1" gradientUnits="userSpaceOnUse" gradientTransform="translate(988.001 361.398) rotate(178.507) scale(583.156 359.55)">
<stop stop-color="#16A9FE"/>
<stop offset="1" stop-color="#16A9FE" stop-opacity="0"/>
</radialGradient>
<radialGradient id="paint6_radial_26_6492" cx="0" cy="0" r="1" gradientUnits="userSpaceOnUse" gradientTransform="translate(445.846 390.831) rotate(-141.991) scale(717.249 594.695)">
<stop stop-color="#0342E7"/>
<stop offset="0.536494" stop-color="#CB24FF"/>
</radialGradient>
<radialGradient id="paint7_radial_26_6492" cx="0" cy="0" r="1" gradientUnits="userSpaceOnUse" gradientTransform="translate(988.001 361.398) rotate(178.507) scale(583.156 359.55)">
<stop stop-color="#16A9FE"/>
<stop offset="1" stop-color="#16A9FE" stop-opacity="0"/>
</radialGradient>
<radialGradient id="paint8_radial_26_6492" cx="0" cy="0" r="1" gradientUnits="userSpaceOnUse" gradientTransform="translate(445.846 390.831) rotate(-141.991) scale(717.249 594.695)">
<stop stop-color="#0342E7"/>
<stop offset="0.536494" stop-color="#CB24FF"/>
</radialGradient>
<radialGradient id="paint9_radial_26_6492" cx="0" cy="0" r="1" gradientUnits="userSpaceOnUse" gradientTransform="translate(988.001 361.398) rotate(178.507) scale(583.156 359.55)">
<stop stop-color="#16A9FE"/>
<stop offset="1" stop-color="#16A9FE" stop-opacity="0"/>
</radialGradient>
<clipPath id="clip0_26_6492">
<rect width="218" height="176" fill="white" transform="translate(747 208)"/>
</clipPath>
<clipPath id="clip1_26_6492">
<rect width="325" height="55" fill="white" transform="translate(640 383)"/>
</clipPath>
<clipPath id="clip2_26_6492">
<rect width="445" height="149" fill="white" transform="translate(196 289)"/>
</clipPath>
<clipPath id="clip3_26_6492">
<rect width="197" height="204" fill="white" transform="translate(0 122)"/>
</clipPath>
<clipPath id="clip4_26_6492">
<rect width="315" height="58" fill="white" transform="translate(20 65)"/>
</clipPath>
</defs>
</svg>
