<svg width="147" height="145" viewBox="0 0 147 145" fill="none" xmlns="http://www.w3.org/2000/svg">
<g opacity="0.6" filter="url(#filter0_f_319_10768)">
<path d="M126.612 34.5H28.6116L77.6116 118.5L126.612 34.5Z" stroke="#CB24FF" stroke-width="8"/>
</g>
<g filter="url(#filter1_f_319_10768)">
<path d="M126.612 34.5H28.6116L77.6116 118.5L126.612 34.5Z" stroke="#CB24FF" stroke-width="4"/>
</g>
<g opacity="0.9" filter="url(#filter2_f_319_10768)">
<path fill-rule="evenodd" clip-rule="evenodd" d="M28.6115 34H56.6115V35H29.482L42.0237 56.5H40.866L28.1796 34.7519L27.741 34H28.6115ZM43.7827 61.5H44.9404L73.5237 110.5H72.6115V110.921L43.7827 61.5ZM77.6115 119.492L77.6115 119.492L78.0434 118.752L103.857 74.5H102.699L77.6115 117.508L77.6115 117.508V119.492ZM106.774 69.5L127.043 34.7519L127.482 34H126.612H61.6115V35H125.741L105.616 69.5H106.774Z" fill="white"/>
</g>
<g opacity="0.9" filter="url(#filter3_f_319_10768)">
<path fill-rule="evenodd" clip-rule="evenodd" d="M56.6115 33H28.6116H26L27.3159 35.2558L40.2917 57.5H43.7648L31.2231 36H56.6115V33ZM101.542 74.5H105.015L78.9072 119.256L77.6116 121.477V115.523L101.542 74.5Z" fill="white"/>
</g>
<g filter="url(#filter4_f_319_10768)">
<path d="M78.1116 79.5L78.1116 51.5M78.1116 51.5L86.6116 60.25M78.1116 51.5L69.6116 60.25" stroke="#CB24FF" stroke-width="4"/>
</g>
<g filter="url(#filter5_f_319_10768)">
<path d="M78.1116 79.5L78.1116 51.5M78.1116 51.5L86.6116 60.25M78.1116 51.5L69.6116 60.25" stroke="#CB24FF" stroke-width="3"/>
</g>
<path opacity="0.6" d="M78.1116 79.5L78.1116 51.5M78.1116 51.5L86.6116 60.25M78.1116 51.5L69.6116 60.25" stroke="white" stroke-width="1.5"/>
<defs>
<filter id="filter0_f_319_10768" x="6.64742" y="15.5" width="141.928" height="125.938" filterUnits="userSpaceOnUse" color-interpolation-filters="sRGB">
<feFlood flood-opacity="0" result="BackgroundImageFix"/>
<feBlend mode="normal" in="SourceGraphic" in2="BackgroundImageFix" result="shape"/>
<feGaussianBlur stdDeviation="7.5" result="effect1_foregroundBlur_319_10768"/>
</filter>
<filter id="filter1_f_319_10768" x="19.1295" y="26.5" width="116.964" height="101.969" filterUnits="userSpaceOnUse" color-interpolation-filters="sRGB">
<feFlood flood-opacity="0" result="BackgroundImageFix"/>
<feBlend mode="normal" in="SourceGraphic" in2="BackgroundImageFix" result="shape"/>
<feGaussianBlur stdDeviation="3" result="effect1_foregroundBlur_319_10768"/>
</filter>
<filter id="filter2_f_319_10768" x="26.741" y="33" width="101.741" height="87.4924" filterUnits="userSpaceOnUse" color-interpolation-filters="sRGB">
<feFlood flood-opacity="0" result="BackgroundImageFix"/>
<feBlend mode="normal" in="SourceGraphic" in2="BackgroundImageFix" result="shape"/>
<feGaussianBlur stdDeviation="0.5" result="effect1_foregroundBlur_319_10768"/>
</filter>
<filter id="filter3_f_319_10768" x="24" y="31" width="83.0148" height="92.4771" filterUnits="userSpaceOnUse" color-interpolation-filters="sRGB">
<feFlood flood-opacity="0" result="BackgroundImageFix"/>
<feBlend mode="normal" in="SourceGraphic" in2="BackgroundImageFix" result="shape"/>
<feGaussianBlur stdDeviation="1" result="effect1_foregroundBlur_319_10768"/>
</filter>
<filter id="filter4_f_319_10768" x="53.177" y="33.6296" width="49.8691" height="60.8704" filterUnits="userSpaceOnUse" color-interpolation-filters="sRGB">
<feFlood flood-opacity="0" result="BackgroundImageFix"/>
<feBlend mode="normal" in="SourceGraphic" in2="BackgroundImageFix" result="shape"/>
<feGaussianBlur stdDeviation="7.5" result="effect1_foregroundBlur_319_10768"/>
</filter>
<filter id="filter5_f_319_10768" x="63.5357" y="44.3472" width="29.1518" height="40.1528" filterUnits="userSpaceOnUse" color-interpolation-filters="sRGB">
<feFlood flood-opacity="0" result="BackgroundImageFix"/>
<feBlend mode="normal" in="SourceGraphic" in2="BackgroundImageFix" result="shape"/>
<feGaussianBlur stdDeviation="2.5" result="effect1_foregroundBlur_319_10768"/>
</filter>
</defs>
</svg>
