<svg width="147" height="154" viewBox="0 0 147 154" fill="none" xmlns="http://www.w3.org/2000/svg">
<g opacity="0.6" filter="url(#filter0_f_321_10920)">
<rect x="77.3333" y="20.7981" width="78.6949" height="79.6664" transform="rotate(45 77.3333 20.7981)" stroke="#CB24FF" stroke-width="8"/>
</g>
<g filter="url(#filter1_f_321_10920)">
<rect x="77.3333" y="20.7981" width="78.6949" height="79.6664" transform="rotate(45 77.3333 20.7981)" stroke="#CB24FF" stroke-width="4"/>
</g>
<g opacity="0.9" filter="url(#filter2_f_321_10920)">
<path fill-rule="evenodd" clip-rule="evenodd" d="M77.3473 20.7669L113.438 56.8574L112.731 57.5645L76.9938 21.8275L66.1217 32.6996L65.4146 31.9925L76.6402 20.7669L76.9938 20.4133L77.3473 20.7669ZM22.1646 75.2425L20.9782 76.4289L20.6246 76.7825L20.9782 77.136L76.6402 132.798L76.9938 133.152L77.3473 132.798L113.003 97.1419L112.296 96.4348L76.9938 131.737L22.0388 76.7825L22.8717 75.9496L22.1646 75.2425ZM25.5586 71.8485L26.2657 72.5556L62.7277 36.0936L62.0206 35.3865L25.5586 71.8485ZM133.009 77.136L116.397 93.7479L115.69 93.0408L131.949 76.7825L116.125 60.9586L116.832 60.2515L133.009 76.4289L133.363 76.7825L133.009 77.136Z" fill="white"/>
</g>
<g opacity="0.9" filter="url(#filter3_f_321_10920)">
<path fill-rule="evenodd" clip-rule="evenodd" d="M25.0227 70.9708L27.144 73.0921L63.3338 36.9024L61.2125 34.781L25.0227 70.9708ZM133.716 77.8438L117.053 94.5075L114.931 92.3862L130.534 76.7831L115.265 61.5133L117.386 59.392L133.716 75.7225L134.777 76.7831L133.716 77.8438Z" fill="white"/>
</g>
<g filter="url(#filter4_f_321_10920)">
<path d="M66.0124 64.4314L88.6398 87.0588M88.6398 87.0588L74.8512 86.7053M88.6398 87.0588L88.2862 73.2702" stroke="#CB24FF" stroke-width="4"/>
</g>
<g filter="url(#filter5_f_321_10920)">
<path d="M66.0124 64.4314L88.6398 87.0588M88.6398 87.0588L74.8512 86.7053M88.6398 87.0588L88.2862 73.2702" stroke="#CB24FF" stroke-width="3"/>
</g>
<path opacity="0.6" d="M66.0124 64.4314L88.6398 87.0588M88.6398 87.0588L74.8512 86.7053M88.6398 87.0588L88.2862 73.2702" stroke="white" stroke-width="1.5"/>
<defs>
<filter id="filter0_f_321_10920" x="0.343765" y="0.141357" width="153.292" height="153.292" filterUnits="userSpaceOnUse" color-interpolation-filters="sRGB">
<feFlood flood-opacity="0" result="BackgroundImageFix"/>
<feBlend mode="normal" in="SourceGraphic" in2="BackgroundImageFix" result="shape"/>
<feGaussianBlur stdDeviation="7.5" result="effect1_foregroundBlur_321_10920"/>
</filter>
<filter id="filter1_f_321_10920" x="12.1722" y="11.9697" width="129.635" height="129.635" filterUnits="userSpaceOnUse" color-interpolation-filters="sRGB">
<feFlood flood-opacity="0" result="BackgroundImageFix"/>
<feBlend mode="normal" in="SourceGraphic" in2="BackgroundImageFix" result="shape"/>
<feGaussianBlur stdDeviation="3" result="effect1_foregroundBlur_321_10920"/>
</filter>
<filter id="filter2_f_321_10920" x="19.6246" y="19.4133" width="114.738" height="114.738" filterUnits="userSpaceOnUse" color-interpolation-filters="sRGB">
<feFlood flood-opacity="0" result="BackgroundImageFix"/>
<feBlend mode="normal" in="SourceGraphic" in2="BackgroundImageFix" result="shape"/>
<feGaussianBlur stdDeviation="0.5" result="effect1_foregroundBlur_321_10920"/>
</filter>
<filter id="filter3_f_321_10920" x="23.0227" y="32.781" width="113.754" height="63.7266" filterUnits="userSpaceOnUse" color-interpolation-filters="sRGB">
<feFlood flood-opacity="0" result="BackgroundImageFix"/>
<feBlend mode="normal" in="SourceGraphic" in2="BackgroundImageFix" result="shape"/>
<feGaussianBlur stdDeviation="1" result="effect1_foregroundBlur_321_10920"/>
</filter>
<filter id="filter4_f_321_10920" x="49.5982" y="48.0171" width="56.0949" height="56.095" filterUnits="userSpaceOnUse" color-interpolation-filters="sRGB">
<feFlood flood-opacity="0" result="BackgroundImageFix"/>
<feBlend mode="normal" in="SourceGraphic" in2="BackgroundImageFix" result="shape"/>
<feGaussianBlur stdDeviation="7.5" result="effect1_foregroundBlur_321_10920"/>
</filter>
<filter id="filter5_f_321_10920" x="59.9517" y="58.3708" width="35.2281" height="35.228" filterUnits="userSpaceOnUse" color-interpolation-filters="sRGB">
<feFlood flood-opacity="0" result="BackgroundImageFix"/>
<feBlend mode="normal" in="SourceGraphic" in2="BackgroundImageFix" result="shape"/>
<feGaussianBlur stdDeviation="2.5" result="effect1_foregroundBlur_321_10920"/>
</filter>
</defs>
</svg>
