<svg fill="none" height="20" viewBox="0 0 20 20" width="20" xmlns="http://www.w3.org/2000/svg"><path d="m16.2612 4.1824c-.005-.0099-.0133-.01765-.0234-.02188-1.167-.5466-2.3986-.93638-3.6639-1.15956-.0115-.00219-.0233-.00061-.0339.00449-.0106.00511-.0193.01349-.0249.02394-.1677.31072-.32.62988-.4561.95626-1.3639-.21135-2.75126-.21135-4.11514 0-.13709-.32721-.29177-.64645-.46332-.95626-.00588-.01023-.01465-.01841-.02516-.02348-.0105-.00508-.02226-.0068-.03374-.00495-1.2654.22271-2.49704.61252-3.66393 1.15959-.00999.00433-.01842.01171-.02412.02113-2.33355 3.55745-2.972799 7.02742-2.65921 10.45442.00089.0084.00341.0165.00744.0239.00402.0074.00946.0139.01598.0191 1.35881 1.027 2.87865 1.811 4.49466 2.3184.01138.0035.02353.0033.03482-.0005.0113-.0037.02118-.0109.02833-.0206.34709-.4821.65463-.9926.91951-1.5263.00364-.0074.00572-.0154.00609-.0236.00038-.0082-.00094-.0164-.00389-.024-.00295-.0077-.00745-.0146-.0132-.0203-.00576-.0058-.01264-.0102-.0202-.013-.48497-.1894-.95448-.4178-1.40412-.6829-.00817-.0049-.01503-.0118-.01998-.0201-.00494-.0082-.00782-.0176-.00838-.0272-.00056-.0097.00121-.0193.00517-.0281s.00998-.0165.01752-.0223c.09462-.0722.18759-.1465.27885-.223.008-.0068.01769-.0111.02797-.0125.01027-.0014.02073.0001.03019.0045 2.9458 1.3724 6.13506 1.3724 9.04596 0 .0095-.0047.0201-.0064.0305-.0051s.0203.0056.0284.0123c.0914.077.1846.1516.2795.2238.0076.0058.0137.0134.0177.0221.004.0088.0059.0184.0054.0281-.0005.0096-.0033.019-.0082.0273s-.0117.0152-.0198.0202c-.4486.2673-.9186.4955-1.4048.6822-.0076.0029-.0144.0074-.0201.0132-.0058.0059-.0102.0129-.0131.0206s-.0042.0159-.0037.0241c.0004.0083.0026.0163.0063.0237.2693.5307.5764 1.0406.9188 1.5254.0069.01.0168.0174.0281.0214.0113.0039.0236.0041.035.0005 1.6189-.5057 3.1414-1.2897 4.5019-2.3183.0067-.005.0122-.0113.0162-.0186.0041-.0072.0065-.0153.0073-.0237.3754-3.9619-.6286-7.40349-2.6613-10.4544zm-9.24615 8.367c-.8869 0-1.61768-.8308-1.61768-1.8512 0-1.02038.7166-1.85129 1.61768-1.85129.90811 0 1.63182.83813 1.61765 1.85119 0 1.0205-.71664 1.8513-1.61765 1.8513zm5.98105 0c-.8869 0-1.6177-.8308-1.6177-1.8512 0-1.02038.7166-1.85129 1.6177-1.85129.9082 0 1.6318.83813 1.6177 1.85119 0 1.0205-.7095 1.8513-1.6177 1.8513z" fill="#fff"/></svg>