<svg width="41" height="35" viewBox="0 0 41 35" fill="none" xmlns="http://www.w3.org/2000/svg">
<path fill-rule="evenodd" clip-rule="evenodd" d="M40.1474 1.8496C38.5769 6.4661 32.8803 21.2149 31.5186 24.1897C30.7323 25.908 29.4938 28.1357 28.7666 29.1403C28.0393 30.145 27.4444 31.0474 27.4444 31.1459C27.4444 31.2443 28.0353 31.3211 28.7579 31.317C30.6306 31.3062 32.4585 30.249 34.4183 28.0438C36.8427 25.3164 38.0924 22.1761 38.856 16.8926C40.0497 8.63508 41.0962 0.377189 40.9929 0.0287341C40.9352 -0.166359 40.5544 0.652962 40.1474 1.8496ZM10.136 5.15296C8.25895 5.89682 5.2443 9.32329 3.97181 12.159C3.4293 13.3681 2.7244 15.7103 2.40476 17.3638C1.81037 20.4401 -0.14481 34.8269 0.00853943 34.9991C0.0548077 35.0516 1.02324 32.7988 2.15967 29.9927C10.3295 9.82407 10.65 9.12577 12.9721 6.4202C14.175 5.01873 14.1855 4.98535 13.4818 4.77321C12.4244 4.45466 11.6878 4.53813 10.136 5.15296ZM14.1299 7.42453C13.0113 8.27271 10.7581 11.398 10.7557 12.105C10.7548 12.3408 11.4842 12.9515 12.3768 13.4616C14.0551 14.4215 24.8923 19.1531 25.4118 19.1531C25.5735 19.1531 25.3482 18.7228 24.9117 18.1967C24.4751 17.6706 22.7161 15.1016 21.0025 12.4879C19.289 9.87415 17.5724 7.48747 17.1879 7.18457C16.2258 6.42611 15.3567 6.49427 14.1299 7.42453ZM17.7918 20.6311C18.9599 22.2089 20.5624 24.4606 21.353 25.6343C23.4217 28.7053 24.5539 29.6971 25.6977 29.4398C27.0765 29.1296 28.5783 27.6753 29.6097 25.6517C30.1157 24.6595 30.5305 23.6621 30.5323 23.4354C30.5347 23.0709 16.9678 17.762 16.0332 17.762C15.8326 17.762 16.6241 19.0529 17.7918 20.6311Z" fill="white"/>
</svg>
