<svg width="64" height="64" viewBox="0 0 64 64" fill="none" xmlns="http://www.w3.org/2000/svg">
<g clip-path="url(#clip0_1126_3468)">
<path d="M0 0H64V64H0V0Z" fill="#0342E7"/>
<g filter="url(#filter0_f_1126_3468)">
<path d="M95 21C95 41.4345 70.8234 58 41 58C11.1766 58 -13 41.4345 -13 21C-13 0.565464 11.1766 -16 41 -16C70.8234 -16 95 0.565464 95 21Z" fill="#CB24FF"/>
</g>
<g filter="url(#filter1_f_1126_3468)">
<path d="M41 38C41 52.3594 29.3594 64 15 64C0.640596 64 -11 52.3594 -11 38C-11 23.6406 0.640596 12 15 12C29.3594 12 41 23.6406 41 38Z" fill="#16A9FE"/>
</g>
<path fill-rule="evenodd" clip-rule="evenodd" d="M52.1474 15.8496C50.5769 20.4661 44.8803 35.2149 43.5186 38.1897C42.7323 39.908 41.4938 42.1357 40.7666 43.1403C40.0393 44.145 39.4444 45.0474 39.4444 45.1459C39.4444 45.2443 40.0353 45.3211 40.7579 45.317C42.6306 45.3062 44.4585 44.249 46.4183 42.0438C48.8427 39.3164 50.0924 36.1761 50.856 30.8926C52.0497 22.6351 53.0962 14.3772 52.9929 14.0287C52.9352 13.8336 52.5544 14.653 52.1474 15.8496ZM22.136 19.153C20.259 19.8968 17.2443 23.3233 15.9718 26.159C15.4293 27.3681 14.7244 29.7103 14.4048 31.3638C13.8104 34.4401 11.8552 48.8269 12.0085 48.9991C12.0548 49.0516 13.0232 46.7988 14.1597 43.9927C22.3295 23.8241 22.65 23.1258 24.9721 20.4202C26.175 19.0187 26.1855 18.9853 25.4818 18.7732C24.4244 18.4547 23.6878 18.5381 22.136 19.153ZM26.1299 21.4245C25.0113 22.2727 22.7581 25.398 22.7557 26.105C22.7548 26.3408 23.4842 26.9515 24.3768 27.4616C26.0551 28.4215 36.8923 33.1531 37.4118 33.1531C37.5735 33.1531 37.3482 32.7228 36.9117 32.1967C36.4751 31.6706 34.7161 29.1016 33.0025 26.4879C31.289 23.8741 29.5724 21.4875 29.1879 21.1846C28.2258 20.4261 27.3567 20.4943 26.1299 21.4245ZM29.7918 34.6311C30.9599 36.2089 32.5624 38.4606 33.353 39.6343C35.4217 42.7053 36.5539 43.6971 37.6977 43.4398C39.0765 43.1296 40.5783 41.6753 41.6097 39.6517C42.1157 38.6595 42.5305 37.6621 42.5323 37.4354C42.5347 37.0709 28.9678 31.762 28.0332 31.762C27.8326 31.762 28.6241 33.0529 29.7918 34.6311Z" fill="white"/>
<path fill-rule="evenodd" clip-rule="evenodd" d="M52.1474 15.8496C50.5769 20.4661 44.8803 35.2149 43.5186 38.1897C42.7323 39.908 41.4938 42.1357 40.7666 43.1403C40.0393 44.145 39.4444 45.0474 39.4444 45.1459C39.4444 45.2443 40.0353 45.3211 40.7579 45.317C42.6306 45.3062 44.4585 44.249 46.4183 42.0438C48.8427 39.3164 50.0924 36.1761 50.856 30.8926C52.0497 22.6351 53.0962 14.3772 52.9929 14.0287C52.9352 13.8336 52.5544 14.653 52.1474 15.8496ZM22.136 19.153C20.259 19.8968 17.2443 23.3233 15.9718 26.159C15.4293 27.3681 14.7244 29.7103 14.4048 31.3638C13.8104 34.4401 11.8552 48.8269 12.0085 48.9991C12.0548 49.0516 13.0232 46.7988 14.1597 43.9927C22.3295 23.8241 22.65 23.1258 24.9721 20.4202C26.175 19.0187 26.1855 18.9853 25.4818 18.7732C24.4244 18.4547 23.6878 18.5381 22.136 19.153ZM26.1299 21.4245C25.0113 22.2727 22.7581 25.398 22.7557 26.105C22.7548 26.3408 23.4842 26.9515 24.3768 27.4616C26.0551 28.4215 36.8923 33.1531 37.4118 33.1531C37.5735 33.1531 37.3482 32.7228 36.9117 32.1967C36.4751 31.6706 34.7161 29.1016 33.0025 26.4879C31.289 23.8741 29.5724 21.4875 29.1879 21.1846C28.2258 20.4261 27.3567 20.4943 26.1299 21.4245ZM29.7918 34.6311C30.9599 36.2089 32.5624 38.4606 33.353 39.6343C35.4217 42.7053 36.5539 43.6971 37.6977 43.4398C39.0765 43.1296 40.5783 41.6753 41.6097 39.6517C42.1157 38.6595 42.5305 37.6621 42.5323 37.4354C42.5347 37.0709 28.9678 31.762 28.0332 31.762C27.8326 31.762 28.6241 33.0529 29.7918 34.6311Z" fill="white"/>
</g>
<defs>
<filter id="filter0_f_1126_3468" x="-53" y="-56" width="188" height="154" filterUnits="userSpaceOnUse" color-interpolation-filters="sRGB">
<feFlood flood-opacity="0" result="BackgroundImageFix"/>
<feBlend mode="normal" in="SourceGraphic" in2="BackgroundImageFix" result="shape"/>
<feGaussianBlur stdDeviation="20" result="effect1_foregroundBlur_1126_3468"/>
</filter>
<filter id="filter1_f_1126_3468" x="-51" y="-28" width="132" height="132" filterUnits="userSpaceOnUse" color-interpolation-filters="sRGB">
<feFlood flood-opacity="0" result="BackgroundImageFix"/>
<feBlend mode="normal" in="SourceGraphic" in2="BackgroundImageFix" result="shape"/>
<feGaussianBlur stdDeviation="20" result="effect1_foregroundBlur_1126_3468"/>
</filter>
<clipPath id="clip0_1126_3468">
<rect width="64" height="64" fill="white"/>
</clipPath>
</defs>
</svg>
