<svg fill="none" height="20" viewBox="0 0 20 20" width="20" xmlns="http://www.w3.org/2000/svg"><g fill="#fff"><path d="m18.9452 6.01763c-.0095-.71379-.1433-1.42049-.3955-2.08848-.2187-.56344-.5527-1.07515-.9807-1.50243s-.9405-.76073-1.5049-.97905c-.6605-.24753-1.3583-.38138-2.0637-.39583-.9081-.04053-1.196-.05184-3.5013-.05184-2.30535 0-2.60083 0-3.50238.05184-.70503.01456-1.40249.1484-2.06269.39583-.56447.21816-1.07711.55156-1.50512.97886s-.76197.93909-.9805 1.50262c-.24844.6589-.38221 1.35535-.39554 2.05926-.0406.90759-.05287 1.19504-.05287 3.49651 0 2.30148 0 2.59548.05287 3.49648.01416.705.14726 1.4005.39554 2.0612.2189.5633.5531 1.0749.98126 1.502.42815.4272.94084.7604 1.5053.9785.6584.2575 1.35598.4009 2.0627.4241.90909.0405 1.19702.0528 3.50233.0528 2.3053 0 2.6008 0 3.5023-.0528.7054-.0138 1.4032-.1474 2.0637-.3949.5642-.2185 1.0766-.5521 1.5046-.9793.428-.4273.7621-.9389.981-1.5021.2483-.6598.3814-1.3553.3955-2.0612.0406-.9066.0529-1.1941.0529-3.4965-.0019-2.30148-.0019-2.59364-.0548-3.49557zm-8.4518 7.81957c-2.41105 0-4.36424-1.95-4.36424-4.35699 0-2.40703 1.95319-4.35697 4.36424-4.35697 1.1575 0 2.2675.45904 3.086 1.27613.8184.81709 1.2782 1.9253 1.2782 3.08084 0 1.15549-.4598 2.26379-1.2782 3.08089-.8185.817-1.9285 1.2761-3.086 1.2761zm4.5379-7.85915c-.1337.00012-.266-.02607-.3896-.07709-.1235-.05101-.2357-.12584-.3302-.22021-.0946-.09436-.1695-.20641-.2206-.32973s-.0774-.25549-.0772-.38894c0-.13336.0263-.26541.0774-.38861.0511-.12321.126-.23516.2205-.32945.0944-.0943.2066-.1691.33-.22013.1234-.05104.2557-.0773.3892-.0773.1336 0 .2659.02626.3893.0773.1234.05103.2356.12583.33.22013.0945.09429.1694.20624.2205.32945.0511.1232.0774.25525.0774.38861 0 .5617-.455 1.01597-1.0167 1.01597z"/><path d="m10.5 12c1.3807 0 2.5-1.1193 2.5-2.5 0-1.38071-1.1193-2.5-2.5-2.5-1.38071 0-2.5 1.11929-2.5 2.5 0 1.3807 1.11929 2.5 2.5 2.5z"/></g></svg>