<svg fill="none" height="20" viewBox="0 0 20 20" width="20" xmlns="http://www.w3.org/2000/svg"><path d="m6.28983 16.9999c7.54757 0 11.67497-5.7704 11.67497-10.77412 0-.16389-.0037-.3271-.0116-.48941.8011-.53456 1.4974-1.20162 2.0468-1.96091-.7352.30171-1.5265.50454-2.3564.5963.8471-.46898 1.4976-1.21054 1.8043-2.09455-.7928.43376-1.6709.7489-2.6055.91911-.7488-.73603-1.815-1.19632-2.9954-1.19632-2.2659 0-4.10354 1.69577-4.10354 3.78615 0 .2973.03608.58625.10641.86346-3.41033-.15836-6.43453-1.66507-8.45812-3.95636-.35225.55951-.555527 1.20964-.555527 1.90335 0 1.31359.724437 2.47357 1.825947 3.15192-.67319-.01907-1.30552-.18962-1.858359-.47349-.000611.01591-.000611.03138-.000611.04831 0 1.83393 1.41437 3.36516 3.29218 3.71206-.34491.0866-.7078.1332-1.08207.1332-.26394 0-.52128-.0239-.77127-.0683.52238 1.5046 2.03729 2.5995 3.83327 2.6302-1.40447 1.0158-3.17366 1.6209-5.096475 1.6209-.330723 0-.657653-.0175-.978835-.0525 1.81604 1.0742 3.97246 1.7011 6.28996 1.7011" fill="#fff"/></svg>