<svg fill="none" height="20" viewBox="0 0 20 20" width="20" xmlns="http://www.w3.org/2000/svg"><path d="m18.6035 5.18694c-.1082-.42348-.3203-.80967-.615-1.11992s-.6618-.53367-1.0645-.64791c-1.4823-.41911-7.424-.41911-7.424-.41911s-5.94174 0-7.424.41688c-.40285.11387-.77012.33717-1.06492.64748-.294791.3103-.506733.69669-.61454 1.12035-.39654008 1.56051-.39654 4.81529-.39654 4.81529s-.00000008 3.2548.39654 4.8131c.218415.8605.86306 1.5382 1.67946 1.7678 1.48226.4191 7.424.4191 7.424.4191s5.9417 0 7.424-.4191c.8185-.2296 1.461-.9073 1.6795-1.7678.3965-1.5583.3965-4.8131.3965-4.8131s0-3.25478-.3965-4.81306zm-10.99078 7.80036v-5.97456l4.91968 2.96497z" fill="#fff"/></svg>