<svg width="198" height="165" viewBox="0 0 198 165" fill="none" xmlns="http://www.w3.org/2000/svg">
<path fill-rule="evenodd" clip-rule="evenodd" d="M193.296 9.16112C185.759 30.7715 158.419 99.8124 151.883 113.737C148.109 121.781 142.165 132.209 138.675 136.912C135.184 141.615 132.329 145.84 132.329 146.3C132.329 146.761 135.165 147.121 138.633 147.101C147.621 147.051 156.394 142.102 165.8 131.779C177.435 119.012 183.433 104.312 187.098 79.5792C192.827 40.9247 197.85 2.26859 197.354 0.637438C197.077 -0.275815 195.249 3.55952 193.296 9.16112ZM49.2595 24.6246C40.251 28.1066 25.7821 44.1463 19.675 57.4202C17.0717 63.0804 13.6881 74.0444 12.1543 81.785C9.30174 96.1854 -0.0821271 163.532 0.653629 164.337C0.876136 164.583 5.52357 154.038 10.978 140.902C50.1881 46.4905 51.7264 43.2217 62.871 30.5566C68.6444 23.9962 68.6948 23.8399 65.3171 22.8469C60.2425 21.3557 56.7076 21.7464 49.2595 24.6246ZM68.4278 35.258C63.0594 39.2284 52.2456 53.8584 52.2337 57.1679C52.2293 58.2716 55.7301 61.1302 60.0141 63.5183C68.0688 68.0114 120.081 90.1606 122.574 90.1606C123.35 90.1606 122.269 88.1469 120.174 85.6838C118.078 83.2208 109.636 71.1955 101.412 58.9602C93.1884 46.7249 84.9497 35.5526 83.1043 34.1347C78.4866 30.5843 74.3153 30.9034 68.4278 35.258ZM86.0029 97.0791C91.6086 104.465 99.2999 115.006 103.094 120.5C113.023 134.876 118.456 139.519 123.946 138.314C130.564 136.862 137.771 130.054 142.721 120.581C145.15 115.937 147.14 111.268 147.149 110.207C147.161 108.501 82.0482 83.649 77.5624 83.649C76.5997 83.649 80.3987 89.6917 86.0029 97.0791Z" fill="white"/>
</svg>
