<svg width="381" height="381" viewBox="0 0 381 381" fill="none" xmlns="http://www.w3.org/2000/svg">
<path fill-rule="evenodd" clip-rule="evenodd" d="M189.578 0.40536C170.798 0.487078 152.66 3.29334 135.541 8.4493L140.504 22.143C156.069 17.5328 172.537 15.0233 189.578 14.943V0.40536ZM27.7742 92.1217C51.6948 52.6275 89.5938 22.5442 134.611 8.73217L139.572 22.4219C97.7907 35.0516 62.5903 62.8414 40.3687 99.3933L27.7742 92.1217ZM6.69858 141.737C2.59147 157.277 0.403442 173.596 0.403442 190.426C0.403442 190.609 0.403699 190.791 0.404213 190.973H14.9417C14.9412 190.791 14.9409 190.609 14.9409 190.426C14.9409 174.898 16.9579 159.84 20.7442 145.501L6.69858 141.737ZM6.94863 140.801L20.9942 144.564C24.8219 130.389 30.381 116.924 37.4307 104.412L24.8381 97.1411C17.1597 110.742 11.1084 125.383 6.94863 140.801ZM25.7261 285.267C9.85513 257.765 0.674833 225.915 0.409364 191.942H14.9473C15.2124 223.267 23.6843 252.633 38.318 277.997L25.7261 285.267ZM38.8046 278.835L26.2127 286.106C42.9054 314.694 66.8497 338.53 95.5233 355.091L102.793 342.499C76.3256 327.214 54.2208 305.218 38.8046 278.835ZM187.889 380.433C154.619 379.998 123.412 371.013 96.3637 355.574L103.634 342.982C128.543 357.184 157.267 365.461 187.889 365.894V380.433ZM192.956 365.894V380.433C209.278 380.219 225.103 377.948 240.185 373.867L236.421 359.821C222.54 363.582 207.977 365.681 192.956 365.894ZM237.356 359.565L241.12 373.611C273.413 364.693 302.258 347.464 325.208 324.37L314.929 314.09C293.757 335.407 267.148 351.316 237.356 359.565ZM380.442 190.426C380.442 242.336 359.627 289.385 325.89 323.681L315.61 313.401C346.717 281.736 365.904 238.322 365.904 190.426C365.904 174.945 363.9 159.932 360.136 145.632L374.181 141.869C378.266 157.369 380.442 173.643 380.442 190.426ZM359.886 144.696L373.932 140.932C369.742 125.359 363.623 110.576 355.846 96.8567L343.254 104.127C350.402 116.759 356.029 130.365 359.886 144.696ZM190.549 0.403564C242.336 0.437359 289.276 21.1878 323.531 54.8161L313.251 65.0962C281.627 34.0984 238.322 14.9748 190.549 14.941V0.403564ZM313.941 65.7765L324.221 55.4968C335.187 66.3715 344.834 78.5737 352.902 91.8423L340.306 99.1142C332.879 86.9477 324.012 75.7562 313.941 65.7765Z" fill="url(#paint0_radial_701_1241)"/>
<path fill-rule="evenodd" clip-rule="evenodd" d="M189.578 0.40536C170.798 0.487078 152.66 3.29334 135.541 8.4493L140.504 22.143C156.069 17.5328 172.537 15.0233 189.578 14.943V0.40536ZM27.7742 92.1217C51.6948 52.6275 89.5938 22.5442 134.611 8.73217L139.572 22.4219C97.7907 35.0516 62.5903 62.8414 40.3687 99.3933L27.7742 92.1217ZM6.69858 141.737C2.59147 157.277 0.403442 173.596 0.403442 190.426C0.403442 190.609 0.403699 190.791 0.404213 190.973H14.9417C14.9412 190.791 14.9409 190.609 14.9409 190.426C14.9409 174.898 16.9579 159.84 20.7442 145.501L6.69858 141.737ZM6.94863 140.801L20.9942 144.564C24.8219 130.389 30.381 116.924 37.4307 104.412L24.8381 97.1411C17.1597 110.742 11.1084 125.383 6.94863 140.801ZM25.7261 285.267C9.85513 257.765 0.674833 225.915 0.409364 191.942H14.9473C15.2124 223.267 23.6843 252.633 38.318 277.997L25.7261 285.267ZM38.8046 278.835L26.2127 286.106C42.9054 314.694 66.8497 338.53 95.5233 355.091L102.793 342.499C76.3256 327.214 54.2208 305.218 38.8046 278.835ZM187.889 380.433C154.619 379.998 123.412 371.013 96.3637 355.574L103.634 342.982C128.543 357.184 157.267 365.461 187.889 365.894V380.433ZM192.956 365.894V380.433C209.278 380.219 225.103 377.948 240.185 373.867L236.421 359.821C222.54 363.582 207.977 365.681 192.956 365.894ZM237.356 359.565L241.12 373.611C273.413 364.693 302.258 347.464 325.208 324.37L314.929 314.09C293.757 335.407 267.148 351.316 237.356 359.565ZM380.442 190.426C380.442 242.336 359.627 289.385 325.89 323.681L315.61 313.401C346.717 281.736 365.904 238.322 365.904 190.426C365.904 174.945 363.9 159.932 360.136 145.632L374.181 141.869C378.266 157.369 380.442 173.643 380.442 190.426ZM359.886 144.696L373.932 140.932C369.742 125.359 363.623 110.576 355.846 96.8567L343.254 104.127C350.402 116.759 356.029 130.365 359.886 144.696ZM190.549 0.403564C242.336 0.437359 289.276 21.1878 323.531 54.8161L313.251 65.0962C281.627 34.0984 238.322 14.9748 190.549 14.941V0.403564ZM313.941 65.7765L324.221 55.4968C335.187 66.3715 344.834 78.5737 352.902 91.8423L340.306 99.1142C332.879 86.9477 324.012 75.7562 313.941 65.7765Z" fill="url(#paint1_radial_701_1241)"/>
<defs>
<radialGradient id="paint0_radial_701_1241" cx="0" cy="0" r="1" gradientUnits="userSpaceOnUse" gradientTransform="translate(190.423 384.795) rotate(-54.795) scale(470.438 511.075)">
<stop stop-color="#0342E7"/>
<stop offset="0.536494" stop-color="#CB24FF"/>
</radialGradient>
<radialGradient id="paint1_radial_701_1241" cx="0" cy="0" r="1" gradientUnits="userSpaceOnUse" gradientTransform="translate(-21.6215 153.094) rotate(44.6977) scale(323.215 365.658)">
<stop stop-color="#16A9FE"/>
<stop offset="1" stop-color="#16A9FE" stop-opacity="0"/>
</radialGradient>
</defs>
</svg>
