<svg width="472" height="472" viewBox="0 0 472 472" fill="none" xmlns="http://www.w3.org/2000/svg">
<path fill-rule="evenodd" clip-rule="evenodd" d="M116.499 51.2538C94.005 65.834 74.3417 84.4107 58.5149 105.978L59.2501 106.404C74.8991 85.0972 94.3082 66.7235 116.499 52.2612V51.2538ZM352.968 50.6352C376.34 65.4142 396.723 84.4916 413.008 106.757L413.743 106.331C397.283 83.8061 376.644 64.5279 352.968 49.6366V50.6352ZM260.914 454.605V453.755C280.069 451.587 298.476 446.95 315.808 440.17V441.077C298.47 447.829 280.064 452.446 260.914 454.605ZM454.959 214.465H454.111C451.884 191.638 446.156 169.838 437.47 149.608L438.206 149.181C446.959 169.54 452.727 191.485 454.959 214.465ZM211.931 453.849V454.698C188.055 452.1 165.326 445.682 144.368 436.068V435.138C165.316 444.793 188.047 451.24 211.931 453.849ZM18.245 211.086C20.7062 189.336 26.3513 168.55 34.703 149.206L33.9669 148.78C25.549 168.252 19.8638 189.182 17.395 211.086H18.245Z" fill="#3A3A3A"/>
<g clip-path="url(#clip0_701_1256)">
<path fill-rule="evenodd" clip-rule="evenodd" d="M42.1602 137.747C47.0961 139.027 52.4737 136.931 55.1474 132.3C58.3589 126.737 56.4531 119.625 50.8906 116.413C50.0213 115.911 49.1143 115.534 48.1901 115.277C48.0053 115.225 47.8198 115.179 47.6338 115.137C42.7977 114.045 37.6129 116.15 35.0035 120.67C31.792 126.233 33.6978 133.345 39.2604 136.557C40.192 137.095 41.1672 137.489 42.1602 137.747ZM51.3749 115.574C57.401 119.053 59.4656 126.758 55.9865 132.785C52.5073 138.811 44.8018 140.875 38.7758 137.396C32.7497 133.917 30.685 126.211 34.1642 120.185C37.6433 114.159 45.3488 112.095 51.3749 115.574Z" fill="#3A3A3A"/>
<path d="M41.6833 132.36L47.9829 121.449M47.9829 121.449L41.3633 123.223M47.9829 121.449L49.7565 128.069" stroke="#E2E2E2" stroke-width="1.45374"/>
</g>
<g clip-path="url(#clip1_701_1256)">
<path fill-rule="evenodd" clip-rule="evenodd" d="M416.652 133.767C416.53 133.615 416.412 133.459 416.297 133.3C416.067 132.981 415.851 132.648 415.65 132.3C412.439 126.737 414.345 119.625 419.907 116.413C425.122 113.402 431.7 114.889 435.148 119.67C435.265 119.834 435.379 120.001 435.49 120.172C435.595 120.334 435.696 120.501 435.794 120.67C439.006 126.233 437.1 133.345 431.537 136.557C426.496 139.467 420.182 138.175 416.652 133.767ZM432.022 137.396C425.996 140.875 418.29 138.811 414.811 132.785C411.332 126.759 413.397 119.053 419.423 115.574C425.449 112.095 433.154 114.16 436.633 120.186C440.113 126.212 438.048 133.917 432.022 137.396Z" fill="#3A3A3A"/>
<path d="M422.33 120.61L428.63 131.521M428.63 131.521L430.403 124.901M428.63 131.521L422.01 129.747" stroke="#E2E2E2" stroke-width="1.45374"/>
</g>
<g clip-path="url(#clip2_701_1256)">
<path fill-rule="evenodd" clip-rule="evenodd" d="M229.042 447.65C226.206 449.771 224.37 453.156 224.37 456.97C224.37 463.393 229.577 468.6 236 468.6C238.456 468.6 240.734 467.838 242.611 466.539C245.644 464.44 247.63 460.937 247.63 456.97C247.63 450.546 242.424 445.34 236 445.34C233.592 445.34 231.354 446.072 229.498 447.326C229.343 447.43 229.191 447.538 229.042 447.65ZM223.401 456.97C223.401 450.011 229.042 444.37 236 444.37C242.959 444.37 248.599 450.011 248.599 456.97C248.599 463.928 242.959 469.569 236 469.569C229.042 469.569 223.401 463.928 223.401 456.97Z" fill="#3A3A3A"/>
<path d="M242.784 456.97L230.185 456.97M230.185 456.97L235.031 461.815M230.185 456.97L235.031 452.124" stroke="#E2E2E2" stroke-width="1.45374"/>
</g>
<path d="M449.473 237.899L449.448 236.658L456.707 229.508C452.215 229.614 449.75 229.671 449.311 229.68L449.286 228.464L458.228 228.287L458.254 229.592L451.007 236.691C455.626 236.574 458.087 236.513 458.391 236.507L458.415 237.723L449.473 237.899Z" fill="white"/>
<path d="M457.044 248.715L457.247 242.017L454.385 241.931L454.19 248.376L453.14 248.344L453.334 241.899L449.409 241.78L449.447 240.527L458.387 240.797L458.146 248.749L457.044 248.715Z" fill="white"/>
<path d="M456.488 257.525L456.739 253.873L448.878 253.332L448.965 252.069L456.825 252.609L457.076 248.969L458.137 249.042L457.549 257.598L456.488 257.525Z" fill="white"/>
<path d="M457.049 262.831L456.878 264.099L451.467 263.371C451.132 263.326 450.84 263.313 450.59 263.33C450.341 263.348 450.133 263.405 449.967 263.502C449.809 263.6 449.696 263.679 449.628 263.738C449.561 263.797 449.472 263.887 449.362 264.009C448.884 264.584 448.579 265.361 448.448 266.34C448.427 266.491 448.412 266.668 448.402 266.871C448.4 267.075 448.408 267.366 448.425 267.743C448.443 268.12 448.527 268.473 448.679 268.8C448.831 269.127 449.041 269.377 449.307 269.549C449.591 269.723 450.013 269.848 450.573 269.923L455.997 270.653L455.827 271.921L450.491 271.203C449.779 271.108 449.238 270.95 448.867 270.73C447.556 269.965 447.054 268.436 447.362 266.143C447.389 265.942 447.425 265.738 447.47 265.531C447.505 265.331 447.585 265.052 447.71 264.694C447.827 264.335 447.964 264.013 448.121 263.727C448.279 263.441 448.501 263.156 448.786 262.871C449.08 262.586 449.407 262.374 449.766 262.235C450.269 262.047 450.959 262.012 451.838 262.13L457.049 262.831Z" fill="white"/>
<path d="M452.815 282.751L453.482 279.151L445.734 277.716L445.965 276.471L453.712 277.905L454.377 274.318L455.423 274.512L453.861 282.944L452.815 282.751Z" fill="white"/>
<path d="M444.362 284.441L444.636 283.178L453.377 285.072L453.103 286.335L444.362 284.441Z" fill="white"/>
<path d="M442.018 294.174L443.756 287.179L452.436 289.336L452.13 290.566L444.508 288.671L443.075 294.437L442.018 294.174Z" fill="white"/>
<path d="M441.166 297.078L441.515 295.834L450.126 298.252L449.777 299.496L441.166 297.078Z" fill="white"/>
<path d="M445.806 308.847L446.901 305.354L439.382 302.996L439.761 301.788L447.28 304.145L448.371 300.664L449.387 300.982L446.821 309.165L445.806 308.847Z" fill="white"/>
<path d="M443.06 319.548L439.477 313.399L436.231 312.205L436.664 311.028L439.933 312.231L446.597 309.93L446.033 311.464L440.725 313.197L443.619 318.027L443.06 319.548Z" fill="white"/>
<path d="M435.055 319.056L434.535 320.335L433.044 319.73C432.591 319.545 432.295 319.307 432.159 319.015C432.019 318.73 432.038 318.359 432.214 317.902L432.86 318.164C432.801 318.377 432.796 318.535 432.846 318.637C432.892 318.747 433.017 318.844 433.22 318.926L433.573 319.069L433.787 318.541L435.055 319.056Z" fill="white"/>
<path d="M427.414 332.93L428.112 331.424L432.638 330.185L434.454 326.266L431.202 324.758L431.74 323.597L439.854 327.358L437.292 332.887C437.04 333.431 436.799 333.84 436.569 334.115C436.171 334.592 435.704 334.887 435.167 335.001C434.63 335.115 434.082 335.043 433.522 334.784C432.495 334.308 432.004 333.55 432.049 332.509C432.067 332.229 432.131 331.9 432.241 331.523L427.414 332.93ZM435.413 326.696L433.554 330.708C433.423 330.991 433.324 331.225 433.258 331.408C433.188 331.599 433.146 331.831 433.131 332.103C433.12 332.387 433.171 332.638 433.284 332.858C433.429 333.167 433.678 333.404 434.03 333.567C434.321 333.702 434.618 333.756 434.919 333.728C435.266 333.702 435.538 333.587 435.736 333.38C435.931 333.182 436.115 332.895 436.289 332.52L438.356 328.06L435.413 326.696Z" fill="white"/>
<path d="M422.674 342.011L426.649 334.412L434.574 338.557L430.752 345.864L429.775 345.353L433.01 339.168L430.653 337.935L427.5 343.963L426.557 343.47L429.71 337.442L427.039 336.045L423.651 342.522L422.674 342.011Z" fill="white"/>
<path d="M424.772 356.155L419.185 347.996L419.831 346.892L429.719 347.704L429.008 348.918L420.712 348.171L425.476 354.952L424.772 356.155Z" fill="white"/>
<path d="M411.833 359.601L416.513 352.414L424.008 357.294L419.508 364.205L418.584 363.604L422.393 357.754L420.164 356.303L416.452 362.003L415.56 361.423L419.272 355.722L416.745 354.077L412.757 360.202L411.833 359.601Z" fill="white"/>
<path d="M405.219 368.725L405.952 367.724L416.06 366.44C412.424 363.8 410.429 362.35 410.075 362.091L410.793 361.11L418.01 366.392L417.24 367.445L407.172 368.695C410.915 371.403 412.909 372.847 413.155 373.026L412.436 374.008L405.219 368.725Z" fill="white"/>
<path d="M410.727 376.244L409.916 377.234L405.692 373.774C405.431 373.56 405.189 373.394 404.968 373.278C404.746 373.162 404.539 373.102 404.347 373.097C404.161 373.098 404.023 373.105 403.935 373.12C403.846 373.135 403.723 373.165 403.566 373.211C402.857 373.449 402.19 373.951 401.564 374.715C401.468 374.833 401.362 374.975 401.246 375.143C401.137 375.315 400.991 375.567 400.808 375.897C400.625 376.228 400.512 376.572 400.47 376.93C400.427 377.288 400.474 377.611 400.611 377.897C400.76 378.194 401.054 378.522 401.492 378.881L405.725 382.349L404.914 383.339L400.75 379.927C400.194 379.472 399.817 379.053 399.617 378.671C398.901 377.332 399.277 375.767 400.743 373.977C400.872 373.821 401.01 373.666 401.156 373.513C401.291 373.362 401.506 373.166 401.8 372.927C402.088 372.683 402.374 372.48 402.658 372.32C402.942 372.16 403.281 372.033 403.674 371.94C404.073 371.852 404.462 371.843 404.841 371.914C405.368 372.018 405.974 372.35 406.66 372.912L410.727 376.244Z" fill="white"/>
<path d="M390.541 386.012L396.283 379.642L402.927 385.63L397.405 391.756L396.586 391.018L401.26 385.833L399.284 384.052L394.729 389.105L393.939 388.392L398.493 383.34L396.254 381.321L391.36 386.75L390.541 386.012Z" fill="white"/>
<path d="M389.246 389.988L388.737 391.155C388.517 391.146 388.346 391.141 388.227 391.139C388.113 391.143 387.949 391.168 387.733 391.213C387.518 391.258 387.284 391.332 387.031 391.436C386.329 391.719 385.614 392.214 384.888 392.921C384.126 393.663 383.695 394.365 383.596 395.027C383.524 395.533 383.658 395.962 384 396.313C384.188 396.507 384.396 396.623 384.622 396.662C384.843 396.707 385.076 396.674 385.322 396.564C385.575 396.46 385.797 396.344 385.99 396.215C386.177 396.092 386.394 395.928 386.642 395.722L387.711 394.859C388.278 394.401 388.677 394.084 388.906 393.907C389.135 393.743 389.403 393.589 389.71 393.444C390.01 393.304 390.304 393.231 390.591 393.223C391.164 393.207 391.663 393.416 392.087 393.852C392.723 394.506 392.898 395.279 392.611 396.171C392.373 396.944 391.804 397.769 390.902 398.647C389.371 400.137 387.884 400.747 386.443 400.476L386.951 399.328C387.542 399.318 388.09 399.209 388.595 399.001C389.099 398.792 389.621 398.426 390.16 397.902C390.42 397.649 390.647 397.392 390.842 397.132C391.042 396.878 391.216 396.609 391.364 396.324C391.505 396.045 391.565 395.768 391.545 395.493C391.531 395.224 391.424 394.987 391.223 394.781C391.064 394.618 390.896 394.511 390.717 394.461C390.538 394.422 390.35 394.441 390.152 394.516C389.96 394.597 389.785 394.684 389.629 394.777C389.478 394.877 389.297 395.012 389.086 395.182L386.912 396.926C386.181 397.507 385.49 397.827 384.839 397.883C384.187 397.94 383.611 397.711 383.11 397.197C382.851 396.931 382.658 396.635 382.531 396.311C382.404 395.987 382.349 395.61 382.367 395.18C382.391 394.756 382.555 394.272 382.862 393.727C383.173 393.187 383.626 392.629 384.219 392.052C385.018 391.275 385.859 390.686 386.743 390.286C387.626 389.886 388.46 389.786 389.246 389.988Z" fill="white"/>
<path d="M378.982 407.864L381.715 405.428L376.471 399.546L377.417 398.703L382.66 404.585L385.384 402.157L386.092 402.951L379.69 408.658L378.982 407.864Z" fill="white"/>
<path d="M365.59 408.613L366.88 407.569L371.489 408.449L374.846 405.731L372.59 402.945L373.584 402.14L379.213 409.09L374.477 412.925C374.011 413.302 373.614 413.564 373.287 413.709C372.72 413.962 372.17 414.021 371.638 413.887C371.106 413.753 370.645 413.447 370.257 412.968C369.545 412.088 369.438 411.191 369.937 410.277C370.077 410.033 370.279 409.766 370.543 409.476L365.59 408.613ZM375.518 406.54L372.082 409.322C371.839 409.519 371.647 409.685 371.507 409.82C371.36 409.961 371.22 410.151 371.087 410.389C370.953 410.639 370.888 410.887 370.892 411.134C370.886 411.475 371.005 411.797 371.249 412.099C371.451 412.349 371.694 412.527 371.977 412.635C372.299 412.765 372.595 412.781 372.863 412.683C373.125 412.591 373.417 412.414 373.739 412.154L377.559 409.06L375.518 406.54Z" fill="white"/>
<path d="M357.366 414.664L364.28 409.591L369.571 416.801L362.922 421.68L362.27 420.792L367.898 416.662L366.324 414.517L360.839 418.542L360.21 417.684L365.694 413.659L363.911 411.229L358.018 415.553L357.366 414.664Z" fill="white"/>
<path d="M348.14 420.797L349.365 419.985L351.491 421.22L356.074 418.183L355.764 415.744L356.958 414.953L358.033 424.97L356.904 425.718L348.14 420.797ZM352.512 421.775L356.788 424.26L356.197 419.332L352.512 421.775Z" fill="white"/>
<path d="M336.382 427.65L337.425 427.05L341.201 433.734L340.543 425.255L341.575 424.661L348.567 429.493C346.087 425.269 344.791 423.062 344.682 422.872L345.714 422.278L350.177 430.028L348.662 430.901L341.72 426.156L342.338 434.541L340.845 435.401L336.382 427.65Z" fill="white"/>
<path d="M336.175 429.797L335.339 430.757C335.131 430.682 334.97 430.626 334.857 430.589C334.747 430.559 334.583 430.533 334.364 430.511C334.145 430.489 333.899 430.489 333.627 430.513C332.872 430.572 332.042 430.829 331.137 431.285C330.187 431.764 329.565 432.304 329.272 432.905C329.051 433.367 329.05 433.816 329.27 434.253C329.392 434.495 329.555 434.668 329.759 434.773C329.956 434.882 330.188 434.921 330.456 434.89C330.728 434.867 330.975 434.823 331.198 434.758C331.413 434.697 331.67 434.605 331.968 434.483L333.247 433.981C333.926 433.715 334.401 433.532 334.673 433.433C334.941 433.345 335.243 433.278 335.579 433.232C335.907 433.19 336.209 433.208 336.485 433.286C337.037 433.443 337.45 433.793 337.723 434.336C338.134 435.151 338.068 435.94 337.526 436.705C337.068 437.371 336.276 437.987 335.152 438.553C333.244 439.514 331.643 439.649 330.349 438.958L331.179 438.015C331.746 438.184 332.302 438.244 332.846 438.197C333.389 438.15 333.997 437.958 334.668 437.62C334.992 437.456 335.286 437.28 335.55 437.09C335.818 436.908 336.065 436.704 336.291 436.476C336.509 436.253 336.65 436.007 336.713 435.739C336.781 435.478 336.75 435.219 336.62 434.963C336.518 434.759 336.389 434.606 336.234 434.505C336.075 434.415 335.89 434.376 335.678 434.388C335.471 434.407 335.278 434.438 335.101 434.48C334.927 434.53 334.714 434.604 334.461 434.703L331.864 435.713C330.992 436.048 330.237 436.145 329.598 436.003C328.96 435.861 328.479 435.47 328.156 434.829C327.989 434.497 327.893 434.157 327.87 433.81C327.846 433.463 327.907 433.087 328.053 432.682C328.203 432.285 328.506 431.873 328.962 431.444C329.421 431.024 330.021 430.627 330.76 430.255C331.756 429.754 332.735 429.445 333.697 429.329C334.66 429.212 335.486 429.369 336.175 429.797Z" fill="white"/>
<path d="M137.632 43.8023L138.947 43.4134C139.03 45.391 137.925 46.9942 135.632 48.2232C134.717 48.714 133.826 49 132.959 49.0814C132.088 49.1553 131.266 48.9879 130.491 48.5792C129.719 48.1591 129.09 47.495 128.603 46.5869C127.937 45.3439 127.827 44.1191 128.272 42.9124C128.718 41.7058 129.677 40.7074 131.151 39.9174C133.272 38.7802 135.159 38.751 136.811 39.83L135.754 40.7272C135.172 40.3395 134.529 40.1764 133.824 40.238C133.123 40.2882 132.422 40.5008 131.722 40.8759C131.358 41.0714 131.026 41.2925 130.727 41.539C130.424 41.7781 130.154 42.0616 129.918 42.3895C129.689 42.7134 129.521 43.0526 129.414 43.407C129.307 43.7614 129.281 44.1589 129.335 44.5995C129.389 45.04 129.538 45.4873 129.781 45.9413C130.348 46.9982 131.125 47.6166 132.112 47.7963C133.096 47.9685 134.146 47.7554 135.262 47.1569C136.847 46.307 137.637 45.1888 137.632 43.8023Z" fill="white"/>
<path d="M137.994 36.6091L139.153 36.0661L141.47 41.01C141.613 41.3159 141.76 41.5689 141.91 41.7692C142.06 41.9694 142.22 42.1133 142.392 42.2008C142.56 42.2806 142.687 42.333 142.773 42.3578C142.859 42.3827 142.983 42.4085 143.145 42.4353C143.887 42.5259 144.706 42.3615 145.6 41.9422C145.738 41.8777 145.895 41.7948 146.071 41.6935C146.244 41.5845 146.484 41.4206 146.792 41.2017C147.1 40.9829 147.35 40.721 147.543 40.4161C147.736 40.1112 147.833 39.8 147.833 39.4827C147.827 39.1501 147.703 38.7276 147.463 38.2152L145.141 33.2599L146.299 32.7169L148.584 37.5919C148.889 38.2419 149.049 38.7825 149.064 39.2136C149.131 40.7303 148.117 41.9797 146.022 42.9617C145.839 43.0477 145.648 43.1278 145.449 43.2021C145.262 43.2805 144.984 43.3641 144.615 43.453C144.25 43.5495 143.905 43.6088 143.58 43.6307C143.254 43.6527 142.894 43.6209 142.5 43.5353C142.101 43.4421 141.747 43.2819 141.435 43.0549C141.005 42.7342 140.602 42.1724 140.225 41.3694L137.994 36.6091Z" fill="white"/>
<path d="M150.674 38.5445L151.582 37.6528C151.784 37.7438 151.939 37.8123 152.05 37.8585C152.157 37.8969 152.318 37.9356 152.535 37.9746C152.752 38.0137 152.997 38.0322 153.27 38.03C154.027 38.0303 154.875 37.8385 155.813 37.4547C156.798 37.0517 157.459 36.5619 157.798 35.9852C158.055 35.5425 158.091 35.0945 157.905 34.6411C157.803 34.391 157.654 34.2056 157.459 34.0848C157.271 33.9608 157.042 33.9038 156.773 33.9138C156.5 33.9159 156.25 33.9406 156.023 33.9879C155.804 34.032 155.541 34.1031 155.234 34.2012L153.92 34.602C153.222 34.8146 152.734 34.9596 152.455 35.037C152.182 35.1035 151.875 35.1467 151.537 35.1666C151.206 35.1834 150.906 35.1418 150.637 35.042C150.099 34.8424 149.715 34.4612 149.485 33.8984C149.139 33.0542 149.266 32.2722 149.866 31.5523C150.376 30.9241 151.213 30.3718 152.377 29.8952C154.355 29.086 155.961 29.0765 157.197 29.8666L156.296 30.7417C155.744 30.5297 155.195 30.4258 154.649 30.4301C154.103 30.4344 153.483 30.5789 152.787 30.8635C152.451 31.0011 152.144 31.154 151.866 31.3225C151.585 31.4831 151.323 31.6679 151.08 31.8768C150.845 32.0825 150.685 32.3167 150.601 32.5793C150.514 32.834 150.524 33.0943 150.633 33.36C150.72 33.5711 150.836 33.7333 150.983 33.8466C151.134 33.9489 151.316 34.0023 151.528 34.0069C151.736 34.0037 151.93 33.9881 152.111 33.96C152.287 33.9241 152.506 33.8667 152.766 33.7878L155.434 32.9834C156.329 32.7175 157.089 32.6802 157.715 32.8712C158.341 33.0623 158.789 33.4901 159.061 34.1545C159.202 34.4984 159.271 34.8444 159.267 35.1926C159.264 35.5408 159.173 35.9109 158.996 36.3028C158.815 36.6869 158.481 37.0745 157.993 37.4657C157.503 37.8491 156.874 38.1976 156.108 38.511C155.076 38.9332 154.076 39.1646 153.107 39.2052C152.138 39.2457 151.327 39.0255 150.674 38.5445Z" fill="white"/>
<path d="M167.018 25.7666L163.57 26.9962L166.217 34.418L165.023 34.8434L162.377 27.4217L158.94 28.647L158.583 27.6447L166.661 24.7643L167.018 25.7666Z" fill="white"/>
<path d="M180.104 25.4672C180.48 26.7299 180.335 27.9143 179.668 29.0202C179.01 30.1237 177.867 30.9175 176.24 31.4016C174.629 31.8809 173.235 31.8729 172.056 31.3777C170.884 30.8719 170.091 29.9269 169.68 28.5427C169.458 27.798 169.401 27.0881 169.508 26.4129C169.613 25.7296 169.851 25.1348 170.22 24.6284C170.595 24.1115 171.061 23.6644 171.618 23.2871C172.176 22.9098 172.798 22.6188 173.486 22.414C174.142 22.2189 174.801 22.1242 175.464 22.1297C176.124 22.1271 176.759 22.2333 177.369 22.4482C177.985 22.6527 178.537 23.0126 179.025 23.5282C179.514 24.0438 179.873 24.6901 180.104 25.4672ZM178.842 25.7107C178.719 25.2978 178.527 24.9188 178.266 24.5736C178.013 24.2261 177.686 23.9268 177.285 23.676C176.89 23.4146 176.39 23.2594 175.785 23.2103C175.18 23.1612 174.517 23.2439 173.797 23.4582C173.263 23.6172 172.783 23.8394 172.356 24.1248C171.936 24.3997 171.581 24.7301 171.29 25.1161C171 25.5022 170.813 25.9543 170.729 26.4726C170.653 26.9886 170.703 27.542 170.879 28.1329C171.195 29.1933 171.803 29.9198 172.704 30.3126C173.605 30.7053 174.687 30.7138 175.95 30.338C176.654 30.1285 177.24 29.8483 177.709 29.4975C178.175 29.1386 178.504 28.7498 178.697 28.3312C178.887 27.9045 178.993 27.4764 179.015 27.047C179.035 26.6094 178.977 26.1639 178.842 25.7107Z" fill="white"/>
<path d="M194.697 26.4323L193.524 26.7051L191.846 19.2137L190.02 27.5204L188.861 27.7903L183.567 21.1402C184.719 25.9014 185.319 28.389 185.369 28.6029L184.209 28.8727L182.182 20.1619L183.885 19.7657L189.155 26.3171L190.992 18.1119L192.67 17.7215L194.697 26.4323Z" fill="white"/>
<path d="M198.726 25.7243L197.456 25.9648L195.791 17.1775L197.061 16.937L198.726 25.7243Z" fill="white"/>
<path d="M209.985 23.8917L201.159 25.2569L200.997 24.2053L206.882 16.4242L200.484 17.4137L200.318 16.3371L208.493 15.0726L208.654 16.1117L202.754 23.8822L209.815 22.79L209.985 23.8917Z" fill="white"/>
<path d="M221.194 22.728L219.732 22.8765L218.426 20.7936L212.956 21.3492L212.095 23.6522L210.671 23.7969L214.38 14.4306L215.728 14.2936L221.194 22.728ZM217.78 19.8278L215.152 15.6382L213.382 20.2746L217.78 19.8278Z" fill="white"/>
<path d="M230.33 14.3528L226.674 14.5467L227.092 22.4151L225.827 22.4822L225.409 14.6138L221.766 14.807L221.71 13.7444L230.274 13.2902L230.33 14.3528Z" fill="white"/>
<path d="M233.908 22.1828L232.616 22.213L232.407 13.2719L233.698 13.2416L233.908 22.1828Z" fill="white"/>
<path d="M246.693 17.9256C246.671 19.2429 246.175 20.3283 245.206 21.1817C244.245 22.0353 242.916 22.4476 241.219 22.4186C239.539 22.3899 238.211 21.9617 237.237 21.1342C236.272 20.2984 235.801 19.1585 235.826 17.7146C235.839 16.9378 235.999 16.2436 236.305 15.6323C236.611 15.0125 237.017 14.5168 237.521 14.1454C238.035 13.7656 238.614 13.4799 239.259 13.2882C239.904 13.0965 240.586 13.0068 241.304 13.019C241.988 13.0307 242.645 13.1391 243.275 13.3441C243.905 13.5407 244.478 13.8335 244.995 14.2224C245.521 14.603 245.939 15.1127 246.249 15.7515C246.559 16.3903 246.707 17.115 246.693 17.9256ZM245.416 17.7771C245.423 17.3465 245.354 16.9272 245.209 16.5193C245.073 16.1115 244.851 15.7276 244.545 15.3676C244.247 14.9993 243.817 14.7006 243.255 14.4714C242.693 14.2422 242.036 14.1211 241.285 14.1083C240.728 14.0988 240.203 14.1658 239.71 14.3095C239.227 14.4448 238.788 14.6527 238.395 14.9331C238.001 15.2136 237.687 15.5883 237.451 16.0573C237.223 16.5264 237.104 17.0692 237.093 17.6856C237.075 18.7918 237.435 19.6679 238.176 20.3141C238.917 20.9602 239.946 21.2945 241.263 21.317C241.998 21.3296 242.641 21.2392 243.194 21.046C243.746 20.8442 244.177 20.5729 244.487 20.2319C244.797 19.8824 245.027 19.5062 245.178 19.1034C245.329 18.6921 245.408 18.25 245.416 17.7771Z" fill="white"/>
<path d="M258.159 23.0608L256.921 22.9714L250.466 15.088C250.16 19.5704 249.99 22.0306 249.959 22.4686L248.746 22.3811L249.39 13.4607L250.691 13.5547L257.096 21.4218C257.404 16.8124 257.568 14.3561 257.59 14.0529L258.803 14.1405L258.159 23.0608Z" fill="white"/>
<path d="M261.815 22.1161L263.188 22.2708L263.007 23.8695C262.952 24.3563 262.803 24.7048 262.558 24.9152C262.322 25.1265 261.96 25.209 261.472 25.1625L261.55 24.4701C261.771 24.4695 261.924 24.4316 262.009 24.3562C262.102 24.2817 262.161 24.1354 262.186 23.9172L262.229 23.5395L261.662 23.4757L261.815 22.1161Z" fill="white"/>
<path d="M276.973 22.9358L278.252 23.4291C277.113 25.0473 275.259 25.645 272.693 25.2221C271.668 25.0533 270.787 24.7369 270.05 24.2732C269.315 23.8011 268.765 23.1669 268.4 22.3707C268.044 21.5674 267.95 20.6575 268.117 19.6409C268.347 18.2493 269.006 17.2109 270.094 16.5258C271.183 15.8407 272.552 15.6341 274.202 15.9059C276.577 16.2972 278.09 17.4239 278.742 19.2859L277.357 19.3531C277.133 18.6912 276.722 18.1699 276.126 17.7892C275.539 17.4016 274.854 17.1432 274.071 17.0141C273.663 16.9469 273.265 16.9198 272.877 16.933C272.492 16.9379 272.105 16.9983 271.718 17.1143C271.339 17.2316 270.999 17.3982 270.698 17.6139C270.397 17.8297 270.134 18.1287 269.909 18.5109C269.683 18.8931 269.528 19.3384 269.444 19.8467C269.25 21.03 269.489 21.9938 270.162 22.7381C270.837 23.4741 271.799 23.9451 273.049 24.151C274.824 24.4435 276.132 24.0384 276.973 22.9358Z" fill="white"/>
<path d="M290.758 24.1968C290.474 25.4831 289.771 26.4478 288.652 27.0909C287.54 27.7358 286.156 27.8748 284.498 27.5079C282.857 27.1447 281.642 26.4605 280.853 25.4553C280.073 24.4438 279.84 23.233 280.152 21.823C280.32 21.0644 280.614 20.416 281.036 19.878C281.46 19.3317 281.956 18.9269 282.525 18.6635C283.103 18.3937 283.728 18.2292 284.399 18.1701C285.069 18.1109 285.755 18.1589 286.456 18.314C287.123 18.4619 287.746 18.699 288.322 19.0256C288.9 19.3439 289.404 19.7452 289.833 20.2294C290.272 20.7072 290.58 21.29 290.757 21.9778C290.933 22.6655 290.934 23.4052 290.758 24.1968ZM289.537 23.7966C289.63 23.3761 289.646 22.9515 289.585 22.5228C289.532 22.096 289.392 21.6757 289.163 21.2618C288.945 20.8415 288.583 20.4631 288.078 20.1264C287.573 19.7897 286.954 19.5401 286.22 19.3777C285.676 19.2572 285.148 19.2183 284.637 19.2608C284.136 19.297 283.665 19.4132 283.224 19.6096C282.782 19.806 282.399 20.1105 282.074 20.5229C281.758 20.9372 281.533 21.4454 281.399 22.0473C281.16 23.1275 281.339 24.058 281.936 24.8389C282.533 25.6198 283.475 26.1526 284.761 26.4373C285.479 26.5961 286.127 26.6359 286.707 26.5566C287.289 26.4691 287.765 26.2892 288.137 26.0168C288.51 25.7362 288.811 25.4135 289.039 25.0488C289.268 24.6757 289.434 24.2584 289.537 23.7966Z" fill="white"/>
<path d="M301.244 31.621L300.05 31.2828L295.325 22.2557C294.117 26.5832 293.453 28.9582 293.334 29.3808L292.164 29.0494L294.601 20.4443L295.856 20.7998L300.535 29.8008C301.77 25.3492 302.428 22.9771 302.511 22.6845L303.681 23.0159L301.244 31.621Z" fill="white"/>
<path d="M313.789 27.5087L310.322 26.3332L307.792 33.7955L306.592 33.3887L309.122 25.9265L305.667 24.7551L306.008 23.7473L314.131 26.5009L313.789 27.5087Z" fill="white"/>
<path d="M320.901 38.6933L319.355 38.0923L317.831 33.6542L313.804 32.0899L312.506 35.4316L311.313 34.9683L314.552 26.6317L320.232 28.8383C320.791 29.0554 321.215 29.27 321.504 29.482C322.005 29.8487 322.329 30.2963 322.477 30.825C322.625 31.3536 322.587 31.9052 322.364 32.4799C321.954 33.5348 321.229 34.0729 320.188 34.0942C319.907 34.0939 319.575 34.0509 319.191 33.9653L320.901 38.6933ZM314.173 31.1053L318.294 32.7063C318.585 32.8194 318.825 32.9033 319.012 32.9579C319.207 33.0155 319.441 33.043 319.714 33.0403C319.997 33.0328 320.245 32.966 320.457 32.84C320.757 32.6755 320.977 32.4122 321.118 32.05C321.234 31.7509 321.269 31.4518 321.222 31.1527C321.174 30.8081 321.041 30.5436 320.823 30.3592C320.613 30.1778 320.315 30.0121 319.929 29.8623L315.347 28.0824L314.173 31.1053Z" fill="white"/>
<path d="M333.618 39.6333C333.074 40.8334 332.188 41.6328 330.96 42.0314C329.74 42.4335 328.356 42.2844 326.81 41.584C325.279 40.8906 324.231 39.9708 323.665 38.8246C323.111 37.6742 323.132 36.4413 323.728 35.1258C324.048 34.418 324.47 33.8443 324.994 33.4047C325.521 32.9574 326.09 32.6634 326.7 32.5228C327.322 32.378 327.967 32.3457 328.636 32.4259C329.304 32.506 329.965 32.6942 330.619 32.9904C331.242 33.2726 331.802 33.6329 332.299 34.0711C332.799 34.5017 333.21 34.9981 333.53 35.5603C333.861 36.1183 334.042 36.752 334.073 37.4614C334.104 38.1708 333.952 38.8948 333.618 39.6333ZM332.505 38.99C332.682 38.5977 332.786 38.1855 332.814 37.7535C332.851 37.325 332.8 36.8848 332.662 36.4327C332.535 35.9765 332.259 35.5316 331.834 35.0982C331.409 34.6647 330.854 34.2929 330.17 33.9828C329.662 33.7528 329.153 33.606 328.645 33.5424C328.147 33.4746 327.662 33.4913 327.189 33.5926C326.717 33.6938 326.279 33.9129 325.877 34.2496C325.481 34.5898 325.157 35.0407 324.902 35.6023C324.446 36.6101 324.429 37.5575 324.853 38.4446C325.276 39.3317 326.088 40.047 327.288 40.5906C327.957 40.8937 328.584 41.0662 329.167 41.1081C329.754 41.1422 330.258 41.0643 330.678 40.8743C331.101 40.6767 331.462 40.4228 331.76 40.1128C332.061 39.7951 332.31 39.4208 332.505 38.99Z" fill="white"/>
<path d="M340.69 48.1326L334.273 44.8495L338.346 36.8875L339.474 37.4645L335.897 44.4567L341.186 47.1627L340.69 48.1326Z" fill="white"/>
<path d="M125.978 421.152L127.025 421.747L123.179 428.391L130.153 423.523L131.189 424.111L130.571 432.588C132.953 428.307 134.198 426.072 134.306 425.881L135.342 426.469L130.926 434.246L129.406 433.383L129.973 424.994L123.061 429.781L121.563 428.93L125.978 421.152Z" fill="white"/>
<path d="M119.627 427.74L118.553 427.045L121.518 422.46C121.701 422.176 121.838 421.918 121.928 421.685C122.019 421.452 122.056 421.239 122.039 421.047C122.018 420.863 121.995 420.727 121.97 420.641C121.945 420.554 121.902 420.435 121.839 420.284C121.522 419.607 120.949 419 120.119 418.463C119.992 418.381 119.838 418.292 119.659 418.196C119.475 418.107 119.209 417.99 118.86 417.845C118.511 417.7 118.156 417.627 117.796 417.625C117.435 417.623 117.12 417.705 116.85 417.873C116.572 418.055 116.279 418.384 115.972 418.859L113 423.454L111.926 422.76L114.849 418.239C115.239 417.636 115.612 417.214 115.97 416.972C117.22 416.111 118.817 416.309 120.76 417.565C120.931 417.676 121.1 417.795 121.268 417.924C121.433 418.041 121.652 418.232 121.922 418.498C122.198 418.756 122.431 419.018 122.622 419.282C122.813 419.547 122.977 419.869 123.114 420.249C123.245 420.636 123.298 421.021 123.27 421.406C123.226 421.941 122.964 422.58 122.482 423.325L119.627 427.74Z" fill="white"/>
<path d="M108.314 409.26L114.18 413.448L108.984 420.727L107.953 419.991L112.516 413.598L107.681 410.146L108.314 409.26Z" fill="white"/>
<path d="M96.4048 409.975L99.2924 412.226L104.136 406.011L105.135 406.79L100.292 413.004L103.169 415.247L102.515 416.087L95.7507 410.814L96.4048 409.975Z" fill="white"/>
<path d="M98.2644 401.24L99.2558 402.068L93.5193 408.93L92.528 408.101L98.2644 401.24Z" fill="white"/>
<path d="M92.014 400.186L95.0262 402.803L94.3449 403.587L91.3327 400.97L92.014 400.186Z" fill="white"/>
<path d="M93.9847 397.612L87.8921 404.159L83.7838 400.336C82.7327 399.358 82.2765 398.386 82.415 397.419C82.4973 396.884 82.7341 396.406 83.1253 395.986C83.7179 395.349 84.404 395.07 85.1837 395.15C85.4896 395.181 85.7854 395.266 86.0713 395.405C86.3572 395.544 86.5862 395.682 86.7585 395.819C86.9307 395.956 87.1621 396.16 87.4527 396.431L90.5965 399.356L93.0388 396.732L93.9847 397.612ZM89.8809 400.144L86.8576 397.33C86.6413 397.129 86.4593 396.971 86.3118 396.857C86.1643 396.743 85.9723 396.639 85.7359 396.546C85.4937 396.459 85.2537 396.432 85.0159 396.465C84.6768 396.507 84.3663 396.679 84.0844 396.982C83.8255 397.26 83.6842 397.567 83.6604 397.903C83.6455 398.154 83.7025 398.409 83.8313 398.667C83.9539 398.92 84.0804 399.113 84.2106 399.245C84.3351 399.384 84.5179 399.566 84.7591 399.79L87.6803 402.509L89.8809 400.144Z" fill="white"/>
<path d="M79.1884 383.143L80.2137 384.195L79.395 386.514L83.2314 390.452L85.5705 389.694L86.5694 390.719L76.9278 393.639L75.9819 392.668L79.1884 383.143ZM79.0401 387.62L77.3934 392.283L82.1251 390.787L79.0401 387.62Z" fill="white"/>
<path d="M65.3128 380.917L72.4271 380.712L75.0276 378.432L75.8543 379.375L73.2347 381.671L72.0687 388.624L70.9914 387.395L72.0075 381.905L66.3817 382.137L65.3128 380.917Z" fill="white"/>
<path d="M69.2542 373.722L68.3833 372.651L69.6318 371.636C70.0119 371.327 70.363 371.183 70.685 371.205C71.0017 371.219 71.3177 371.414 71.6332 371.789L71.0925 372.228C70.9344 372.074 70.7986 371.994 70.6851 371.988C70.5663 371.976 70.4217 372.039 70.2513 372.177L69.9564 372.417L70.3159 372.86L69.2542 373.722Z" fill="white"/>
<path d="M59.2541 358.199L59.9599 359.173L53.705 363.625L62.07 362.087L62.7684 363.052L58.6904 370.509C62.633 367.602 64.6932 366.084 64.871 365.956L65.5694 366.92L58.3256 372.165L57.3003 370.75L61.2962 363.352L53.0207 364.84L52.0103 363.444L59.2541 358.199Z" fill="white"/>
<path d="M52.7489 348.048L53.539 349.287L52.2663 351.391L55.2223 356.026L57.6666 355.76L58.4363 356.967L48.4026 357.866L47.6738 356.723L52.7489 348.048ZM51.694 352.402L49.134 356.634L54.0711 356.13L51.694 352.402Z" fill="white"/>
<path d="M47.3724 338.609L48.1916 340.052L46.5684 344.455L48.7008 348.212L51.8186 346.442L52.4502 347.555L44.6723 351.969L41.6644 346.67C41.3684 346.149 41.1753 345.715 41.0852 345.368C40.9287 344.767 40.9602 344.215 41.1795 343.712C41.3988 343.209 41.7766 342.805 42.3127 342.5C43.2969 341.942 44.1992 341.983 45.0197 342.624C45.2371 342.802 45.4673 343.045 45.7105 343.354L47.3724 338.609ZM47.7927 348.742L45.6102 344.897C45.456 344.625 45.3236 344.409 45.213 344.248C45.0983 344.08 44.9343 343.911 44.7211 343.741C44.4964 343.567 44.262 343.462 44.0181 343.426C43.682 343.364 43.345 343.429 43.0072 343.621C42.7281 343.78 42.5122 343.99 42.3596 344.251C42.1785 344.548 42.1143 344.837 42.1669 345.118C42.2154 345.391 42.3418 345.708 42.546 346.068L44.9724 350.342L47.7927 348.742Z" fill="white"/>
<path d="M42.4086 328.778L43.1699 330.295L40.6797 336.066L43.7468 337.631L46.2265 336.386L46.7776 337.485L38.7839 341.496L38.2214 340.375L42.4787 338.239L35.3296 334.612L34.4944 332.947L39.5345 335.478L42.4086 328.778Z" fill="white"/>
<path d="M38.309 319.562L41.7879 327.401L33.6131 331.029L30.2679 323.491L31.2753 323.044L34.1066 329.424L36.5382 328.345L33.7788 322.127L34.7514 321.695L37.5109 327.913L40.2666 326.69L37.3017 320.009L38.309 319.562Z" fill="white"/>
<path d="M27.6574 313.985L28.995 317.393L36.3297 314.514L36.7925 315.694L29.4578 318.572L30.7908 321.969L29.8002 322.357L26.6668 314.374L27.6574 313.985Z" fill="white"/>
<path d="M34.9085 310.908L26.4487 313.809L24.6281 308.501C24.1623 307.143 24.2184 306.07 24.7965 305.282C25.1213 304.85 25.5552 304.54 26.0985 304.354C26.9213 304.072 27.6577 304.149 28.3078 304.587C28.5631 304.758 28.7839 304.973 28.9704 305.23C29.1569 305.488 29.2938 305.718 29.381 305.92C29.4682 306.122 29.5762 306.411 29.705 306.786L31.0982 310.848L34.4893 309.685L34.9085 310.908ZM30.0958 311.206L28.756 307.299C28.6601 307.02 28.574 306.795 28.4977 306.624C28.4215 306.454 28.3011 306.272 28.1365 306.079C27.9639 305.888 27.7651 305.751 27.54 305.667C27.2211 305.544 26.866 305.55 26.4745 305.684C26.1151 305.808 25.8457 306.012 25.6666 306.296C25.5349 306.511 25.465 306.763 25.4568 307.051C25.4459 307.332 25.4666 307.561 25.5188 307.74C25.5631 307.921 25.6387 308.167 25.7456 308.479L27.0402 312.254L30.0958 311.206Z" fill="white"/>
<path d="M29.1549 292.875L31.194 299.789L22.6158 302.319L22.2574 301.104L29.7907 298.882L28.11 293.184L29.1549 292.875Z" fill="white"/>
<path d="M26.5307 282.227L26.8793 283.654L24.9965 285.235L26.301 290.576L28.7008 291.112L29.0404 292.502L19.2521 290.12L18.9305 288.803L26.5307 282.227ZM24.129 286.008L20.3418 289.189L25.1779 290.303L24.129 286.008Z" fill="white"/>
<path d="M21.9755 272.854L22.0026 271.483C23.9125 272.002 25.1067 273.54 25.5849 276.096C25.7759 277.117 25.7792 278.053 25.5946 278.904C25.4018 279.756 24.9935 280.49 24.3696 281.105C23.7359 281.713 22.9127 282.112 21.8999 282.302C20.5136 282.561 19.3127 282.296 18.2973 281.506C17.2818 280.717 16.6203 279.5 16.3129 277.857C15.8703 275.491 16.413 273.684 17.9408 272.436L18.4765 273.714C17.931 274.152 17.5811 274.715 17.4267 275.406C17.2625 276.089 17.2534 276.821 17.3993 277.602C17.4754 278.009 17.5858 278.392 17.7304 278.751C17.8666 279.112 18.0553 279.455 18.2964 279.779C18.536 280.096 18.8085 280.358 19.114 280.567C19.4195 280.777 19.7903 280.922 20.2266 281.004C20.6629 281.085 21.1342 281.079 21.6406 280.984C22.8194 280.763 23.6437 280.21 24.1136 279.323C24.5752 278.437 24.6895 277.372 24.4566 276.127C24.1258 274.359 23.2988 273.268 21.9755 272.854Z" fill="white"/>
<path d="M22.958 260.628L24.1331 269.124L15.2739 270.349L14.1439 262.18L15.2357 262.029L16.192 268.943L18.8272 268.579L17.8951 261.84L18.9492 261.694L19.8813 268.433L22.8678 268.02L21.8663 260.779L22.958 260.628Z" fill="white"/>
<path d="M21.4466 258.818L21.3026 257.444L22.9026 257.277C23.3898 257.226 23.7624 257.297 24.0205 257.491C24.2777 257.676 24.436 258.012 24.4955 258.498L23.8026 258.571C23.7545 258.355 23.6845 258.214 23.5925 258.147C23.4997 258.072 23.3441 258.046 23.1258 258.068L22.7478 258.108L22.8072 258.675L21.4466 258.818Z" fill="white"/>
<path d="M21.6435 242.085L21.7214 243.553L19.578 244.758L19.8694 250.248L22.1283 251.219L22.2042 252.648L13.0274 248.492L12.9556 247.139L21.6435 242.085ZM18.5822 245.356L14.2708 247.779L18.8166 249.771L18.5822 245.356Z" fill="white"/>
<path d="M21.6449 241.385L12.7013 241.396L12.694 235.784C12.6922 234.349 13.092 233.352 13.8936 232.793C14.3408 232.489 14.8516 232.336 15.4258 232.335C16.2957 232.334 16.9675 232.646 17.4413 233.27C17.6274 233.515 17.7671 233.789 17.8604 234.093C17.9537 234.397 18.0089 234.658 18.0261 234.878C18.0432 235.098 18.0521 235.406 18.0526 235.803L18.0582 240.097L21.6432 240.092L21.6449 241.385ZM16.9941 240.111L16.9887 235.981C16.9883 235.686 16.9796 235.445 16.9625 235.259C16.9453 235.074 16.8902 234.863 16.797 234.626C16.6953 234.39 16.5515 234.196 16.3655 234.044C16.1034 233.825 15.7654 233.715 15.3516 233.716C14.9716 233.716 14.6508 233.822 14.3893 234.034C14.1952 234.195 14.0477 234.41 13.9467 234.681C13.8457 234.943 13.7911 235.166 13.7829 235.352C13.7663 235.538 13.7582 235.796 13.7586 236.125L13.7638 240.115L16.9941 240.111Z" fill="white"/>
<path d="M21.6471 231.499L12.7119 231.112L12.9547 225.506C13.0168 224.071 13.4606 223.093 14.2863 222.571C14.7466 222.287 15.2637 222.157 15.8374 222.182C16.7065 222.219 17.3637 222.561 17.8092 223.205C17.9842 223.458 18.1116 223.738 18.1912 224.046C18.2709 224.354 18.3144 224.618 18.3218 224.838C18.3291 225.058 18.3243 225.366 18.3071 225.763L18.1213 230.053L21.703 230.208L21.6471 231.499ZM17.0577 230.02L17.2363 225.894C17.2491 225.599 17.2511 225.358 17.2422 225.172C17.2334 224.985 17.1877 224.772 17.1051 224.532C17.0141 224.291 16.879 224.091 16.7 223.931C16.4479 223.7 16.1152 223.576 15.7018 223.558C15.3221 223.541 14.9969 223.633 14.7262 223.833C14.5252 223.985 14.3682 224.193 14.2553 224.459C14.1427 224.716 14.0782 224.937 14.0617 225.123C14.0368 225.308 14.0172 225.564 14.003 225.894L13.8303 229.88L17.0577 230.02Z" fill="white"/>
<defs>
<clipPath id="clip0_701_1256">
<rect width="25.1982" height="25.1982" fill="white" transform="translate(27.8646 131.097) rotate(-60)"/>
</clipPath>
<clipPath id="clip1_701_1256">
<rect width="25.1982" height="25.1982" fill="white" transform="translate(430.334 109.274) rotate(60)"/>
</clipPath>
<clipPath id="clip2_701_1256">
<rect width="25.1982" height="25.1982" fill="white" transform="translate(248.599 469.569) rotate(-180)"/>
</clipPath>
</defs>
</svg>
