<svg width="90" height="9" viewBox="0 0 90 9" fill="none" xmlns="http://www.w3.org/2000/svg">
<g clip-path="url(#clip0_489_2934)">
<path d="M0.9375 5C1.21364 5 1.4375 4.77614 1.4375 4.5C1.4375 4.22386 1.21364 4 0.9375 4L0.9375 5ZM6.5625 4C6.28636 4 6.0625 4.22386 6.0625 4.5C6.0625 4.77614 6.28636 5 6.5625 5L6.5625 4ZM8.4375 5C8.71364 5 8.9375 4.77614 8.9375 4.5C8.9375 4.22386 8.71364 4 8.4375 4L8.4375 5ZM14.0625 4C13.7864 4 13.5625 4.22386 13.5625 4.5C13.5625 4.77614 13.7864 5 14.0625 5L14.0625 4ZM15.9375 5C16.2136 5 16.4375 4.77614 16.4375 4.5C16.4375 4.22386 16.2136 4 15.9375 4L15.9375 5ZM21.5625 4C21.2864 4 21.0625 4.22386 21.0625 4.5C21.0625 4.77614 21.2864 5 21.5625 5V4ZM23.4375 5C23.7136 5 23.9375 4.77614 23.9375 4.5C23.9375 4.22386 23.7136 4 23.4375 4V5ZM29.0625 4C28.7864 4 28.5625 4.22386 28.5625 4.5C28.5625 4.77614 28.7864 5 29.0625 5V4ZM30.9375 5C31.2136 5 31.4375 4.77614 31.4375 4.5C31.4375 4.22386 31.2136 4 30.9375 4V5ZM36.5625 4C36.2864 4 36.0625 4.22386 36.0625 4.5C36.0625 4.77614 36.2864 5 36.5625 5V4ZM38.4375 5C38.7136 5 38.9375 4.77614 38.9375 4.5C38.9375 4.22386 38.7136 4 38.4375 4V5ZM44.0625 4C43.7864 4 43.5625 4.22386 43.5625 4.5C43.5625 4.77614 43.7864 5 44.0625 5V4ZM45.9375 5C46.2136 5 46.4375 4.77614 46.4375 4.5C46.4375 4.22386 46.2136 4 45.9375 4V5ZM51.5625 4C51.2864 4 51.0625 4.22386 51.0625 4.5C51.0625 4.77614 51.2864 5 51.5625 5V4ZM53.4375 5C53.7136 5 53.9375 4.77614 53.9375 4.5C53.9375 4.22386 53.7136 4 53.4375 4V5ZM59.0625 4C58.7864 4 58.5625 4.22386 58.5625 4.5C58.5625 4.77614 58.7864 5 59.0625 5V4ZM60.9375 5C61.2136 5 61.4375 4.77614 61.4375 4.5C61.4375 4.22386 61.2136 4 60.9375 4V5ZM66.5625 4C66.2864 4 66.0625 4.22386 66.0625 4.5C66.0625 4.77614 66.2864 5 66.5625 5V4ZM68.4375 5C68.7136 5 68.9375 4.77614 68.9375 4.5C68.9375 4.22386 68.7136 4 68.4375 4V5ZM74.0625 4C73.7864 4 73.5625 4.22386 73.5625 4.5C73.5625 4.77614 73.7864 5 74.0625 5V4ZM75.9375 5C76.2136 5 76.4375 4.77614 76.4375 4.5C76.4375 4.22386 76.2136 4 75.9375 4V5ZM81.5625 4C81.2864 4 81.0625 4.22386 81.0625 4.5C81.0625 4.77614 81.2864 5 81.5625 5V4ZM83.4375 5C83.7136 5 83.9375 4.77614 83.9375 4.5C83.9375 4.22386 83.7136 4 83.4375 4V5ZM89.0625 4C88.7864 4 88.5625 4.22386 88.5625 4.5C88.5625 4.77614 88.7864 5 89.0625 5V4ZM0 5L0.9375 5L0.9375 4L0 4L0 5ZM6.5625 5L8.4375 5L8.4375 4L6.5625 4L6.5625 5ZM14.0625 5L15.9375 5L15.9375 4L14.0625 4L14.0625 5ZM21.5625 5L23.4375 5V4L21.5625 4V5ZM29.0625 5L30.9375 5V4L29.0625 4V5ZM36.5625 5L38.4375 5V4L36.5625 4V5ZM44.0625 5L45.9375 5V4L44.0625 4V5ZM51.5625 5L53.4375 5V4L51.5625 4V5ZM59.0625 5L60.9375 5V4L59.0625 4V5ZM66.5625 5L68.4375 5V4L66.5625 4V5ZM74.0625 5L75.9375 5V4L74.0625 4V5ZM81.5625 5L83.4375 5V4L81.5625 4V5ZM89.0625 5L90 5V4L89.0625 4V5Z" fill="url(#paint0_linear_489_2934)"/>
</g>
<defs>
<linearGradient id="paint0_linear_489_2934" x1="-13.3585" y1="5" x2="108.352" y2="5" gradientUnits="userSpaceOnUse">
<stop stop-color="white"/>
<stop offset="1" stop-color="white" stop-opacity="0"/>
</linearGradient>
<clipPath id="clip0_489_2934">
<rect width="9" height="90" fill="white" transform="translate(0 9) rotate(-90)"/>
</clipPath>
</defs>
</svg>
